<?xml version="1.0" encoding="UTF-8" standalone="no"?>
<!-- Generated by SVGo -->

<svg
   xmlns:dc="http://purl.org/dc/elements/1.1/"
   xmlns:cc="http://creativecommons.org/ns#"
   xmlns:rdf="http://www.w3.org/1999/02/22-rdf-syntax-ns#"
   xmlns:svg="http://www.w3.org/2000/svg"
   xmlns="http://www.w3.org/2000/svg"
   xmlns:sodipodi="http://sodipodi.sourceforge.net/DTD/sodipodi-0.dtd"
   xmlns:inkscape="http://www.inkscape.org/namespaces/inkscape"
   width="315.751mm"
   height="149.231mm"
   viewBox="0.000 0.000 315.751 149.231"
   version="1.1"
   id="svg3186"
   sodipodi:docname="all_plate.svg"
   inkscape:version="0.92.3 (2405546, 2018-03-11)">
  <metadata
     id="metadata3192">
    <rdf:RDF>
      <cc:Work
         rdf:about="">
        <dc:format>image/svg+xml</dc:format>
        <dc:type
           rdf:resource="http://purl.org/dc/dcmitype/StillImage" />
        <dc:title />
      </cc:Work>
    </rdf:RDF>
  </metadata>
  <defs
     id="defs3190" />
  <sodipodi:namedview
     pagecolor="#ffffff"
     bordercolor="#666666"
     borderopacity="1"
     objecttolerance="10"
     gridtolerance="10"
     guidetolerance="10"
     inkscape:pageopacity="0"
     inkscape:pageshadow="2"
     inkscape:window-width="3840"
     inkscape:window-height="2097"
     id="namedview3188"
     showgrid="false"
     inkscape:zoom="2.413294"
     inkscape:cx="216.82629"
     inkscape:cy="269.03895"
     inkscape:window-x="0"
     inkscape:window-y="30"
     inkscape:window-maximized="1"
     inkscape:current-layer="layer8" />
  <g
     inkscape:groupmode="layer"
     id="layer11"
     inkscape:label="screw_hole"
     style="display:inline"
     sodipodi:insensitive="true">
    <polygon
       points="9.66,11.046 10,11.1 10.339,11.046 10.646,10.889 10.889,10.646 11.046,10.339 11.1,10 11.046,9.66 10.889,9.353 10.646,9.11 10.339,8.953 10,8.9 9.66,8.953 9.353,9.11 9.11,9.353 8.953,9.66 8.899,10 8.953,10.339 9.11,10.646 9.353,10.889 "
       style="display:inline;fill:none;stroke:#000000;stroke-width:0.05mm"
       id="polygon3890"
       transform="translate(9.184792,38.887949)" />
    <polygon
       points="11.046,10.339 11.1,10 11.046,9.66 10.889,9.353 10.646,9.11 10.339,8.953 10,8.9 9.66,8.953 9.353,9.11 9.11,9.353 8.953,9.66 8.899,10 8.953,10.339 9.11,10.646 9.353,10.889 9.66,11.046 10,11.1 10.339,11.046 10.646,10.889 10.889,10.646 "
       style="display:inline;fill:none;stroke:#000000;stroke-width:0.05mm"
       id="polygon3890-3"
       transform="translate(47.284791,38.887959)" />
    <polygon
       points="10.339,8.953 10,8.9 9.66,8.953 9.353,9.11 9.11,9.353 8.953,9.66 8.899,10 8.953,10.339 9.11,10.646 9.353,10.889 9.66,11.046 10,11.1 10.339,11.046 10.646,10.889 10.889,10.646 11.046,10.339 11.1,10 11.046,9.66 10.889,9.353 10.646,9.11 "
       style="display:inline;fill:none;stroke:#000000;stroke-width:0.05mm"
       id="polygon3890-3-1"
       transform="translate(85.383787,38.887967)" />
    <polygon
       points="10,8.9 9.66,8.953 9.353,9.11 9.11,9.353 8.953,9.66 8.899,10 8.953,10.339 9.11,10.646 9.353,10.889 9.66,11.046 10,11.1 10.339,11.046 10.646,10.889 10.889,10.646 11.046,10.339 11.1,10 11.046,9.66 10.889,9.353 10.646,9.11 10.339,8.953 "
       style="display:inline;fill:none;stroke:#000000;stroke-width:0.05mm"
       id="polygon3890-7-2"
       transform="translate(47.284791,76.987968)" />
    <polygon
       points="10.889,10.646 11.046,10.339 11.1,10 11.046,9.66 10.889,9.353 10.646,9.11 10.339,8.953 10,8.9 9.66,8.953 9.353,9.11 9.11,9.353 8.953,9.66 8.899,10 8.953,10.339 9.11,10.646 9.353,10.889 9.66,11.046 10,11.1 10.339,11.046 10.646,10.889 "
       style="display:inline;fill:none;stroke:#000000;stroke-width:0.05mm"
       id="polygon3890-7-2-7"
       transform="translate(85.384287,76.98795)" />
    <polygon
       points="11.046,10.339 11.1,10 11.046,9.66 10.889,9.353 10.646,9.11 10.339,8.953 10,8.9 9.66,8.953 9.353,9.11 9.11,9.353 8.953,9.66 8.899,10 8.953,10.339 9.11,10.646 9.353,10.889 9.66,11.046 10,11.1 10.339,11.046 10.646,10.889 10.889,10.646 "
       style="display:inline;fill:none;stroke:#000000;stroke-width:0.05mm"
       id="polygon3890-7"
       transform="translate(9.184792,96.037949)" />
    <polygon
       points="10.646,9.11 10.339,8.953 10,8.9 9.66,8.953 9.353,9.11 9.11,9.353 8.953,9.66 8.899,10 8.953,10.339 9.11,10.646 9.353,10.889 9.66,11.046 10,11.1 10.339,11.046 10.646,10.889 10.889,10.646 11.046,10.339 11.1,10 11.046,9.66 10.889,9.353 "
       style="display:inline;fill:none;stroke:#000000;stroke-width:0.05mm"
       id="polygon3890-7-2-7-9"
       transform="rotate(15,-434.99601,503.01595)" />
    <polygon
       points="9.11,10.646 9.353,10.889 9.66,11.046 10,11.1 10.339,11.046 10.646,10.889 10.889,10.646 11.046,10.339 11.1,10 11.046,9.66 10.889,9.353 10.646,9.11 10.339,8.953 10,8.9 9.66,8.953 9.353,9.11 9.11,9.353 8.953,9.66 8.899,10 8.953,10.339 "
       style="display:inline;fill:none;stroke:#000000;stroke-width:0.05mm"
       id="polygon3890-7-2-7-9-6"
       transform="rotate(30.000001,-143.30809,285.80107)" />
  </g>
  <g
     inkscape:groupmode="layer"
     id="layer8"
     inkscape:label="key_hole"
     style="display:inline"
     sodipodi:insensitive="true">
    <polygon
       points="134.867,109.391 131.243,122.914 144.766,126.537 148.39,113.014 "
       style="fill:none;stroke:#000000;stroke-width:0.05mm"
       id="polygon3766"
       transform="translate(-14.865708,14.837978)" />
    <polygon
       points="112.669,98.999 110.72,112.863 124.584,114.811 126.532,100.948 "
       style="fill:none;stroke:#000000;stroke-width:0.05mm"
       id="polygon3770"
       transform="translate(-14.865708,14.837978)" />
    <polygon
       points="102.962,98.487 88.962,98.487 88.962,112.487 102.962,112.487 "
       style="fill:none;stroke:#000000;stroke-width:0.05mm"
       id="polygon3774"
       transform="translate(-14.865708,14.837978)" />
    <polygon
       points="69.625,93.725 55.625,93.725 55.625,107.725 69.625,107.725 "
       style="fill:none;stroke:#000000;stroke-width:0.05mm"
       id="polygon3784"
       transform="translate(-14.865708,14.837978)" />
    <polygon
       points="50.575,93.725 36.575,93.725 36.575,107.725 50.575,107.725 "
       style="fill:none;stroke:#000000;stroke-width:0.05mm"
       id="polygon3786"
       transform="translate(-14.865708,14.837978)" />
    <polygon
       points="31.525,93.725 17.525,93.725 17.525,107.725 31.525,107.725 "
       style="fill:none;stroke:#000000;stroke-width:0.05mm"
       id="polygon3788"
       transform="translate(-14.865708,14.837978)" />
    <polygon
       points="126.774,74.675 112.774,74.675 112.774,88.675 126.774,88.675 "
       style="fill:none;stroke:#000000;stroke-width:0.05mm"
       id="polygon3802"
       transform="translate(-14.865708,14.837978)" />
    <polygon
       points="107.725,74.675 93.725,74.675 93.725,88.675 107.725,88.675 "
       style="fill:none;stroke:#000000;stroke-width:0.05mm"
       id="polygon3804"
       transform="translate(-14.865708,14.837978)" />
    <polygon
       points="88.675,74.675 74.675,74.675 74.675,88.675 88.675,88.675 "
       style="fill:none;stroke:#000000;stroke-width:0.05mm"
       id="polygon3806"
       transform="translate(-14.865708,14.837978)" />
    <polygon
       points="69.625,74.675 55.625,74.675 55.625,88.675 69.625,88.675 "
       style="fill:none;stroke:#000000;stroke-width:0.05mm"
       id="polygon3808"
       transform="translate(-14.865708,14.837978)" />
    <polygon
       points="50.575,74.675 36.575,74.675 36.575,88.675 50.575,88.675 "
       style="fill:none;stroke:#000000;stroke-width:0.05mm"
       id="polygon3810"
       transform="translate(-14.865708,14.837978)" />
    <polygon
       points="31.525,74.675 17.525,74.675 17.525,88.675 31.525,88.675 "
       style="fill:none;stroke:#000000;stroke-width:0.05mm"
       id="polygon3812"
       transform="translate(-14.865708,14.837978)" />
    <polygon
       points="126.774,55.625 112.774,55.625 112.774,69.625 126.774,69.625 "
       style="fill:none;stroke:#000000;stroke-width:0.05mm"
       id="polygon3830"
       transform="translate(-14.865708,14.837978)" />
    <polygon
       points="107.725,55.625 93.725,55.625 93.725,69.625 107.725,69.625 "
       style="fill:none;stroke:#000000;stroke-width:0.05mm"
       id="polygon3832"
       transform="translate(-14.865708,14.837978)" />
    <polygon
       points="88.675,55.625 74.675,55.625 74.675,69.625 88.675,69.625 "
       style="fill:none;stroke:#000000;stroke-width:0.05mm"
       id="polygon3834"
       transform="translate(-14.865708,14.837978)" />
    <polygon
       points="69.625,55.625 55.625,55.625 55.625,69.625 69.625,69.625 "
       style="fill:none;stroke:#000000;stroke-width:0.05mm"
       id="polygon3836"
       transform="translate(-14.865708,14.837978)" />
    <polygon
       points="50.575,55.625 36.575,55.625 36.575,69.625 50.575,69.625 "
       style="fill:none;stroke:#000000;stroke-width:0.05mm"
       id="polygon3838"
       transform="translate(-14.865708,14.837978)" />
    <polygon
       points="31.525,55.625 17.525,55.625 17.525,69.625 31.525,69.625 "
       style="fill:none;stroke:#000000;stroke-width:0.05mm"
       id="polygon3840"
       transform="translate(-14.865708,14.837978)" />
    <polygon
       points="126.774,36.575 112.774,36.575 112.774,50.575 126.774,50.575 "
       style="fill:none;stroke:#000000;stroke-width:0.05mm"
       id="polygon3854"
       transform="translate(-14.865708,14.837978)" />
    <polygon
       points="107.725,36.575 93.725,36.575 93.725,50.575 107.725,50.575 "
       style="fill:none;stroke:#000000;stroke-width:0.05mm"
       id="polygon3856"
       transform="translate(-14.865708,14.837978)" />
    <polygon
       points="88.675,36.575 74.675,36.575 74.675,50.575 88.675,50.575 "
       style="fill:none;stroke:#000000;stroke-width:0.05mm"
       id="polygon3858"
       transform="translate(-14.865708,14.837978)" />
    <polygon
       points="69.625,36.575 55.625,36.575 55.625,50.575 69.625,50.575 "
       style="fill:none;stroke:#000000;stroke-width:0.05mm"
       id="polygon3860"
       transform="translate(-14.865708,14.837978)" />
    <polygon
       points="50.575,36.575 36.575,36.575 36.575,50.575 50.575,50.575 "
       style="fill:none;stroke:#000000;stroke-width:0.05mm"
       id="polygon3862"
       transform="translate(-14.865708,14.837978)" />
    <polygon
       points="31.525,36.575 17.525,36.575 17.525,50.575 31.525,50.575 "
       style="fill:none;stroke:#000000;stroke-width:0.05mm"
       id="polygon3864"
       transform="translate(-14.865708,14.837978)" />
    <polygon
       points="126.774,17.525 112.774,17.525 112.774,31.525 126.774,31.525 "
       style="fill:none;stroke:#000000;stroke-width:0.05mm"
       id="polygon3878"
       transform="translate(-14.865708,14.837978)" />
    <polygon
       points="107.725,17.525 93.725,17.525 93.725,31.525 107.725,31.525 "
       style="fill:none;stroke:#000000;stroke-width:0.05mm"
       id="polygon3880"
       transform="translate(-14.865708,14.837978)" />
    <polygon
       points="88.675,17.525 74.675,17.525 74.675,31.525 88.675,31.525 "
       style="fill:none;stroke:#000000;stroke-width:0.05mm"
       id="polygon3882"
       transform="translate(-14.865708,14.837978)" />
    <polygon
       points="69.625,17.525 55.625,17.525 55.625,31.525 69.625,31.525 "
       style="fill:none;stroke:#000000;stroke-width:0.05mm"
       id="polygon3884"
       transform="translate(-14.865708,14.837978)" />
    <polygon
       points="50.575,17.525 36.575,17.525 36.575,31.525 50.575,31.525 "
       style="fill:none;stroke:#000000;stroke-width:0.05mm"
       id="polygon3886"
       transform="translate(-14.865708,14.837978)" />
    <polygon
       points="31.525,17.525 17.525,17.525 17.525,31.525 31.525,31.525 "
       style="fill:none;stroke:#000000;stroke-width:0.05mm"
       id="polygon3888"
       transform="translate(-14.865708,14.837978)" />
  </g>
  <g
     inkscape:groupmode="layer"
     id="layer9"
     inkscape:label="key_plate"
     style="display:inline"
     sodipodi:insensitive="true">
    <path
       style="fill:none;stroke:#000000;stroke-width:0.26458332px;stroke-linecap:butt;stroke-linejoin:miter;stroke-opacity:1"
       d="M 0.13229166,29.835977 V 125.08797 H 57.285293 l 14.284999,4.763 h 19.051996 2.379 l 18.867002,2.651 0.183,11.636 18.403,4.931 7.396,-27.603 -18.403,-4.931 -4.93,-2.899 -0.083,-83.799993 z"
       id="path4455"
       inkscape:connector-curvature="0" />
  </g>
  <g
     inkscape:groupmode="layer"
     id="layer10"
     inkscape:label="bottom_plate"
     style="display:inline"
     sodipodi:insensitive="true">
    <path
       style="fill:none;stroke:#000000;stroke-width:0.26458332px;stroke-linecap:butt;stroke-linejoin:miter;stroke-opacity:1"
       d="M 0.13229166,29.835977 V 125.08797 H 57.285293 l 14.284999,4.763 h 19.051996 2.379 l 18.867002,2.651 0.183,11.636 18.403,4.931 7.396,-27.603 -18.403,-4.931 -4.93009,-2.899 v -7.59706 h 21.34943 V 48.886978 H 114.43461 V 29.835977 Z"
       id="path4458"
       inkscape:connector-curvature="0"
       sodipodi:nodetypes="cccccccccccccccccc" />
  </g>
</svg>
