<?xml version="1.0" encoding="UTF-8" standalone="no"?>
<!-- Generated by SVGo -->

<svg
   xmlns:dc="http://purl.org/dc/elements/1.1/"
   xmlns:cc="http://creativecommons.org/ns#"
   xmlns:rdf="http://www.w3.org/1999/02/22-rdf-syntax-ns#"
   xmlns:svg="http://www.w3.org/2000/svg"
   xmlns="http://www.w3.org/2000/svg"
   xmlns:sodipodi="http://sodipodi.sourceforge.net/DTD/sodipodi-0.dtd"
   xmlns:inkscape="http://www.inkscape.org/namespaces/inkscape"
   width="277.651mm"
   height="113.821mm"
   viewBox="0.000 0.000 277.651 113.821"
   version="1.1"
   id="svg909"
   sodipodi:docname="all.svg"
   inkscape:version="0.92.3 (2405546, 2018-03-11)">
  <metadata
     id="metadata915">
    <rdf:RDF>
      <cc:Work
         rdf:about="">
        <dc:format>image/svg+xml</dc:format>
        <dc:type
           rdf:resource="http://purl.org/dc/dcmitype/StillImage" />
        <dc:title />
      </cc:Work>
    </rdf:RDF>
  </metadata>
  <defs
     id="defs913" />
  <sodipodi:namedview
     pagecolor="#ffffff"
     bordercolor="#666666"
     borderopacity="1"
     objecttolerance="10"
     gridtolerance="10"
     guidetolerance="10"
     inkscape:pageopacity="0"
     inkscape:pageshadow="2"
     inkscape:window-width="3840"
     inkscape:window-height="2097"
     id="namedview911"
     showgrid="false"
     inkscape:zoom="2.5600001"
     inkscape:cx="458.72762"
     inkscape:cy="131.4559"
     inkscape:window-x="0"
     inkscape:window-y="30"
     inkscape:window-maximized="1"
     inkscape:current-layer="layer4"
     showguides="false" />
  <g
     inkscape:groupmode="layer"
     id="layer1"
     inkscape:label="base_top"
     style="display:none"
     sodipodi:insensitive="true">
    <g
       id="g1725">
      <polygon
         id="polygon883"
         style="fill:none;stroke:#000000;stroke-width:0.05mm"
         points="5,5 272.651,5 272.651,108.821 5,108.821 " />
      <polygon
         id="polygon885"
         style="fill:none;stroke:#000000;stroke-width:0.05mm"
         points="10.339,102.774 10,102.721 9.66,102.774 9.353,102.931 9.11,103.174 8.953,103.481 8.899,103.821 8.953,104.16 9.11,104.467 9.353,104.71 9.66,104.867 10,104.921 10.339,104.867 10.646,104.71 10.889,104.467 11.046,104.16 11.1,103.821 11.046,103.481 10.889,103.174 10.646,102.931 " />
      <polygon
         id="polygon887"
         style="fill:none;stroke:#000000;stroke-width:0.05mm"
         points="139.165,102.774 138.825,102.721 138.485,102.774 138.178,102.931 137.935,103.174 137.779,103.481 137.725,103.821 137.779,104.16 137.935,104.467 138.178,104.71 138.485,104.867 138.825,104.921 139.165,104.867 139.472,104.71 139.715,104.467 139.871,104.16 139.925,103.821 139.871,103.481 139.715,103.174 139.472,102.931 " />
      <polygon
         id="polygon889"
         style="fill:none;stroke:#000000;stroke-width:0.05mm"
         points="267.99,102.774 267.651,102.721 267.311,102.774 267.004,102.931 266.761,103.174 266.604,103.481 266.551,103.821 266.604,104.16 266.761,104.467 267.004,104.71 267.311,104.867 267.651,104.921 267.99,104.867 268.297,104.71 268.54,104.467 268.697,104.16 268.751,103.821 268.697,103.481 268.54,103.174 268.297,102.931 " />
      <polygon
         id="polygon891"
         style="fill:none;stroke:#000000;stroke-width:0.05mm"
         points="157.876,98.821 157.876,79.769 119.774,79.769 119.774,98.821 " />
      <polygon
         id="polygon893"
         style="fill:none;stroke:#000000;stroke-width:0.05mm"
         points="180.331,95.671 177.68,76.805 158.813,79.456 161.465,98.323 " />
      <polygon
         id="polygon895"
         style="fill:none;stroke:#000000;stroke-width:0.05mm"
         points="118.836,79.456 99.969,76.805 97.318,95.671 116.184,98.323 " />
      <polygon
         id="polygon897"
         style="fill:none;stroke:#000000;stroke-width:0.05mm"
         points="200.738,95.963 200.738,76.911 181.686,76.911 181.686,95.963 " />
      <polygon
         id="polygon899"
         style="fill:none;stroke:#000000;stroke-width:0.05mm"
         points="95.963,95.963 95.963,76.911 76.911,76.911 76.911,95.963 " />
      <polygon
         id="polygon901"
         style="fill:none;stroke:#000000;stroke-width:0.05mm"
         points="129.3,24.523 129.3,14.998 14.998,14.998 14.998,91.201 72.151,91.201 72.151,72.151 205.499,72.151 205.499,91.201 262.651,91.201 262.651,14.998 148.349,14.998 148.349,24.523 " />
      <polygon
         id="polygon903"
         style="fill:none;stroke:#000000;stroke-width:0.05mm"
         points="10.339,8.953 10,8.9 9.66,8.953 9.353,9.11 9.11,9.353 8.953,9.66 8.899,10 8.953,10.339 9.11,10.646 9.353,10.889 9.66,11.046 10,11.1 10.339,11.046 10.646,10.889 10.889,10.646 11.046,10.339 11.1,10 11.046,9.66 10.889,9.353 10.646,9.11 " />
      <polygon
         id="polygon905"
         style="fill:none;stroke:#000000;stroke-width:0.05mm"
         points="267.99,8.953 267.651,8.9 267.311,8.953 267.004,9.11 266.761,9.353 266.604,9.66 266.551,10 266.604,10.339 266.761,10.646 267.004,10.889 267.311,11.046 267.651,11.1 267.99,11.046 268.297,10.889 268.54,10.646 268.697,10.339 268.751,10 268.697,9.66 268.54,9.353 268.297,9.11 " />
      <polygon
         id="polygon907"
         style="fill:none;stroke:#000000;stroke-width:0.05mm"
         points="139.165,8.953 138.825,8.9 138.485,8.953 138.178,9.11 137.935,9.353 137.779,9.66 137.725,10 137.779,10.339 137.935,10.646 138.178,10.889 138.485,11.046 138.825,11.1 139.165,11.046 139.472,10.889 139.715,10.646 139.871,10.339 139.925,10 139.871,9.66 139.715,9.353 139.472,9.11 " />
    </g>
  </g>
  <g
     inkscape:groupmode="layer"
     id="layer2"
     inkscape:label="base_switch"
     style="display:none"
     sodipodi:insensitive="true">
    <g
       id="g1653">
      <polygon
         id="polygon1480"
         style="fill:none;stroke:#000000;stroke-width:0.05mm"
         points="272.651,108.821 5,108.821 5,5 272.651,5 " />
      <polygon
         id="polygon1482"
         style="fill:none;stroke:#000000;stroke-width:0.05mm"
         points="10.889,104.467 11.046,104.16 11.1,103.821 11.046,103.481 10.889,103.174 10.646,102.931 10.339,102.774 10,102.721 9.66,102.774 9.353,102.931 9.11,103.174 8.953,103.481 8.899,103.821 8.953,104.16 9.11,104.467 9.353,104.71 9.66,104.867 10,104.921 10.339,104.867 10.646,104.71 " />
      <polygon
         id="polygon1484"
         style="fill:none;stroke:#000000;stroke-width:0.05mm"
         points="139.715,104.467 139.871,104.16 139.925,103.821 139.871,103.481 139.715,103.174 139.472,102.931 139.165,102.774 138.825,102.721 138.485,102.774 138.178,102.931 137.935,103.174 137.779,103.481 137.725,103.821 137.779,104.16 137.935,104.467 138.178,104.71 138.485,104.867 138.825,104.921 139.165,104.867 139.472,104.71 " />
      <polygon
         id="polygon1486"
         style="fill:none;stroke:#000000;stroke-width:0.05mm"
         points="268.54,104.467 268.697,104.16 268.751,103.821 268.697,103.481 268.54,103.174 268.297,102.931 267.99,102.774 267.651,102.721 267.311,102.774 267.004,102.931 266.761,103.174 266.604,103.481 266.551,103.821 266.604,104.16 266.761,104.467 267.004,104.71 267.311,104.867 267.651,104.921 267.99,104.867 268.297,104.71 " />
      <polygon
         id="polygon1488"
         style="fill:none;stroke:#000000;stroke-width:0.05mm"
         points="154.925,89.795 154.925,86.995 154.1,86.995 154.1,83.765 152.375,83.765 152.375,82.845 149.075,82.845 149.075,83.765 147.35,83.765 147.35,86.995 145.825,86.995 145.825,82.295 131.825,82.295 131.825,86.995 130.3,86.995 130.3,83.765 128.574,83.765 128.574,82.845 125.275,82.845 125.275,83.765 123.55,83.765 123.55,86.995 122.725,86.995 122.725,89.795 123.55,89.795 123.55,96.065 125.275,96.065 125.275,97.045 128.574,97.045 128.574,96.065 130.3,96.065 130.3,91.595 131.825,91.595 131.825,96.295 145.825,96.295 145.825,91.595 147.35,91.595 147.35,96.065 149.075,96.065 149.075,97.045 152.375,97.045 152.375,96.065 154.1,96.065 154.1,89.795 " />
      <polygon
         id="polygon1490"
         style="fill:none;stroke:#000000;stroke-width:0.05mm"
         points="161.666,81.606 163.615,95.47 177.478,93.522 175.53,79.658 " />
      <polygon
         id="polygon1492"
         style="fill:none;stroke:#000000;stroke-width:0.05mm"
         points="100.171,93.522 114.034,95.47 115.983,81.606 102.119,79.658 " />
      <polygon
         id="polygon1494"
         style="fill:none;stroke:#000000;stroke-width:0.05mm"
         points="184.212,79.437 184.212,93.437 198.212,93.437 198.212,79.437 " />
      <polygon
         id="polygon1496"
         style="fill:none;stroke:#000000;stroke-width:0.05mm"
         points="79.437,79.437 79.437,93.437 93.437,93.437 93.437,79.437 " />
      <polygon
         id="polygon1498"
         style="fill:none;stroke:#000000;stroke-width:0.05mm"
         points="246.125,74.675 246.125,88.675 260.125,88.675 260.125,74.675 " />
      <polygon
         id="polygon1500"
         style="fill:none;stroke:#000000;stroke-width:0.05mm"
         points="227.075,74.675 227.075,88.675 241.075,88.675 241.075,74.675 " />
      <polygon
         id="polygon1502"
         style="fill:none;stroke:#000000;stroke-width:0.05mm"
         points="208.025,74.675 208.025,88.675 222.025,88.675 222.025,74.675 " />
      <polygon
         id="polygon1504"
         style="fill:none;stroke:#000000;stroke-width:0.05mm"
         points="55.625,74.675 55.625,88.675 69.625,88.675 69.625,74.675 " />
      <polygon
         id="polygon1506"
         style="fill:none;stroke:#000000;stroke-width:0.05mm"
         points="36.575,74.675 36.575,88.675 50.575,88.675 50.575,74.675 " />
      <polygon
         id="polygon1508"
         style="fill:none;stroke:#000000;stroke-width:0.05mm"
         points="17.525,74.675 17.525,88.675 31.525,88.675 31.525,74.675 " />
      <polygon
         id="polygon1510"
         style="fill:none;stroke:#000000;stroke-width:0.05mm"
         points="246.125,55.625 246.125,69.625 260.125,69.625 260.125,55.625 " />
      <polygon
         id="polygon1512"
         style="fill:none;stroke:#000000;stroke-width:0.05mm"
         points="227.075,55.625 227.075,69.625 241.075,69.625 241.075,55.625 " />
      <polygon
         id="polygon1514"
         style="fill:none;stroke:#000000;stroke-width:0.05mm"
         points="208.025,55.625 208.025,69.625 222.025,69.625 222.025,55.625 " />
      <polygon
         id="polygon1516"
         style="fill:none;stroke:#000000;stroke-width:0.05mm"
         points="188.975,55.625 188.975,69.625 202.975,69.625 202.975,55.625 " />
      <polygon
         id="polygon1518"
         style="fill:none;stroke:#000000;stroke-width:0.05mm"
         points="169.925,55.625 169.925,69.625 183.925,69.625 183.925,55.625 " />
      <polygon
         id="polygon1520"
         style="fill:none;stroke:#000000;stroke-width:0.05mm"
         points="150.875,55.625 150.875,69.625 164.875,69.625 164.875,55.625 " />
      <polygon
         id="polygon1522"
         style="fill:none;stroke:#000000;stroke-width:0.05mm"
         points="112.774,55.625 112.774,69.625 126.774,69.625 126.774,55.625 " />
      <polygon
         id="polygon1524"
         style="fill:none;stroke:#000000;stroke-width:0.05mm"
         points="93.725,55.625 93.725,69.625 107.725,69.625 107.725,55.625 " />
      <polygon
         id="polygon1526"
         style="fill:none;stroke:#000000;stroke-width:0.05mm"
         points="74.675,55.625 74.675,69.625 88.675,69.625 88.675,55.625 " />
      <polygon
         id="polygon1528"
         style="fill:none;stroke:#000000;stroke-width:0.05mm"
         points="55.625,55.625 55.625,69.625 69.625,69.625 69.625,55.625 " />
      <polygon
         id="polygon1530"
         style="fill:none;stroke:#000000;stroke-width:0.05mm"
         points="36.575,55.625 36.575,69.625 50.575,69.625 50.575,55.625 " />
      <polygon
         id="polygon1532"
         style="fill:none;stroke:#000000;stroke-width:0.05mm"
         points="17.525,55.625 17.525,69.625 31.525,69.625 31.525,55.625 " />
      <polygon
         id="polygon1534"
         style="fill:none;stroke:#000000;stroke-width:0.05mm"
         points="131.825,41.337 131.825,55.337 145.825,55.337 145.825,41.337 " />
      <polygon
         id="polygon1536"
         style="fill:none;stroke:#000000;stroke-width:0.05mm"
         points="246.125,36.574 246.125,50.574 260.125,50.574 260.125,36.574 " />
      <polygon
         id="polygon1538"
         style="fill:none;stroke:#000000;stroke-width:0.05mm"
         points="227.075,36.574 227.075,50.574 241.075,50.574 241.075,36.574 " />
      <polygon
         id="polygon1540"
         style="fill:none;stroke:#000000;stroke-width:0.05mm"
         points="208.025,36.574 208.025,50.574 222.025,50.574 222.025,36.574 " />
      <polygon
         id="polygon1542"
         style="fill:none;stroke:#000000;stroke-width:0.05mm"
         points="188.975,36.574 188.975,50.574 202.975,50.574 202.975,36.574 " />
      <polygon
         id="polygon1544"
         style="fill:none;stroke:#000000;stroke-width:0.05mm"
         points="169.925,36.574 169.925,50.574 183.925,50.574 183.925,36.574 " />
      <polygon
         id="polygon1546"
         style="fill:none;stroke:#000000;stroke-width:0.05mm"
         points="150.875,36.574 150.875,50.574 164.875,50.574 164.875,36.574 " />
      <polygon
         id="polygon1548"
         style="fill:none;stroke:#000000;stroke-width:0.05mm"
         points="112.774,36.574 112.774,50.574 126.774,50.574 126.774,36.574 " />
      <polygon
         id="polygon1550"
         style="fill:none;stroke:#000000;stroke-width:0.05mm"
         points="93.725,36.574 93.725,50.574 107.725,50.574 107.725,36.574 " />
      <polygon
         id="polygon1552"
         style="fill:none;stroke:#000000;stroke-width:0.05mm"
         points="74.675,36.574 74.675,50.574 88.675,50.574 88.675,36.574 " />
      <polygon
         id="polygon1554"
         style="fill:none;stroke:#000000;stroke-width:0.05mm"
         points="55.625,36.574 55.625,50.574 69.625,50.574 69.625,36.574 " />
      <polygon
         id="polygon1556"
         style="fill:none;stroke:#000000;stroke-width:0.05mm"
         points="36.575,36.574 36.575,50.574 50.575,50.574 50.575,36.574 " />
      <polygon
         id="polygon1558"
         style="fill:none;stroke:#000000;stroke-width:0.05mm"
         points="17.525,36.574 17.525,50.574 31.525,50.574 31.525,36.574 " />
      <polygon
         id="polygon1560"
         style="fill:none;stroke:#000000;stroke-width:0.05mm"
         points="246.125,17.525 246.125,31.525 260.125,31.525 260.125,17.525 " />
      <polygon
         id="polygon1562"
         style="fill:none;stroke:#000000;stroke-width:0.05mm"
         points="227.075,17.525 227.075,31.525 241.075,31.525 241.075,17.525 " />
      <polygon
         id="polygon1564"
         style="fill:none;stroke:#000000;stroke-width:0.05mm"
         points="208.025,17.525 208.025,31.525 222.025,31.525 222.025,17.525 " />
      <polygon
         id="polygon1566"
         style="fill:none;stroke:#000000;stroke-width:0.05mm"
         points="188.975,17.525 188.975,31.525 202.975,31.525 202.975,17.525 " />
      <polygon
         id="polygon1568"
         style="fill:none;stroke:#000000;stroke-width:0.05mm"
         points="169.925,17.525 169.925,31.525 183.925,31.525 183.925,17.525 " />
      <polygon
         id="polygon1570"
         style="fill:none;stroke:#000000;stroke-width:0.05mm"
         points="150.875,17.525 150.875,31.525 164.875,31.525 164.875,17.525 " />
      <polygon
         id="polygon1572"
         style="fill:none;stroke:#000000;stroke-width:0.05mm"
         points="112.774,17.525 112.774,31.525 126.774,31.525 126.774,17.525 " />
      <polygon
         id="polygon1574"
         style="fill:none;stroke:#000000;stroke-width:0.05mm"
         points="93.725,17.525 93.725,31.525 107.725,31.525 107.725,17.525 " />
      <polygon
         id="polygon1576"
         style="fill:none;stroke:#000000;stroke-width:0.05mm"
         points="74.675,17.525 74.675,31.525 88.675,31.525 88.675,17.525 " />
      <polygon
         id="polygon1578"
         style="fill:none;stroke:#000000;stroke-width:0.05mm"
         points="55.625,17.525 55.625,31.525 69.625,31.525 69.625,17.525 " />
      <polygon
         id="polygon1580"
         style="fill:none;stroke:#000000;stroke-width:0.05mm"
         points="36.575,17.525 36.575,31.525 50.575,31.525 50.575,17.525 " />
      <polygon
         id="polygon1582"
         style="fill:none;stroke:#000000;stroke-width:0.05mm"
         points="17.525,17.525 17.525,31.525 31.525,31.525 31.525,17.525 " />
      <polygon
         id="polygon1584"
         style="fill:none;stroke:#000000;stroke-width:0.05mm"
         points="10.889,10.646 11.046,10.339 11.1,10 11.046,9.66 10.889,9.353 10.646,9.11 10.339,8.953 10,8.9 9.66,8.953 9.353,9.11 9.11,9.353 8.953,9.66 8.899,10 8.953,10.339 9.11,10.646 9.353,10.889 9.66,11.046 10,11.1 10.339,11.046 10.646,10.889 " />
      <polygon
         id="polygon1586"
         style="fill:none;stroke:#000000;stroke-width:0.05mm"
         points="268.54,10.646 268.697,10.339 268.751,10 268.697,9.66 268.54,9.353 268.297,9.11 267.99,8.953 267.651,8.9 267.311,8.953 267.004,9.11 266.761,9.353 266.604,9.66 266.551,10 266.604,10.339 266.761,10.646 267.004,10.889 267.311,11.046 267.651,11.1 267.99,11.046 268.297,10.889 " />
      <polygon
         id="polygon1588"
         style="fill:none;stroke:#000000;stroke-width:0.05mm"
         points="139.715,10.646 139.871,10.339 139.925,10 139.871,9.66 139.715,9.353 139.472,9.11 139.165,8.953 138.825,8.9 138.485,8.953 138.178,9.11 137.935,9.353 137.779,9.66 137.725,10 137.779,10.339 137.935,10.646 138.178,10.889 138.485,11.046 138.825,11.1 139.165,11.046 139.472,10.889 " />
    </g>
  </g>
  <g
     inkscape:groupmode="layer"
     id="layer3"
     inkscape:label="bottom_plate"
     style="display:inline"
     sodipodi:insensitive="true">
    <path
       style="fill:none;stroke:#000000;stroke-width:0.26458332px;stroke-linecap:butt;stroke-linejoin:miter;stroke-opacity:1"
       d="m 14.998,14.998 v 76.203001 h 57.153001 l 4.76,4.762 h 19.052 l 20.220999,2.360001 3.59,0.497999 h 38.102 l 3.589,-0.497999 20.221,-2.360001 h 19.052 l 4.761,-4.762 h 57.152 V 14.998 H 14.998"
       id="path960"
       inkscape:connector-curvature="0" />
  </g>
  <g
     inkscape:groupmode="layer"
     id="layer4"
     inkscape:label="key_holes"
     style="display:inline"
     sodipodi:insensitive="true">
    <polygon
       points="163.615,95.47 177.478,93.522 175.53,79.658 161.666,81.606 "
       style="fill:none;stroke:#000000;stroke-width:0.05mm"
       id="polygon1490-6" />
    <polygon
       points="114.034,95.47 115.983,81.606 102.119,79.658 100.171,93.522 "
       style="fill:none;stroke:#000000;stroke-width:0.05mm"
       id="polygon1492-2" />
    <polygon
       points="184.212,93.437 198.212,93.437 198.212,79.437 184.212,79.437 "
       style="fill:none;stroke:#000000;stroke-width:0.05mm"
       id="polygon1494-9" />
    <polygon
       points="79.437,93.437 93.437,93.437 93.437,79.437 79.437,79.437 "
       style="fill:none;stroke:#000000;stroke-width:0.05mm"
       id="polygon1496-1" />
    <polygon
       points="246.125,88.675 260.125,88.675 260.125,74.675 246.125,74.675 "
       style="fill:none;stroke:#000000;stroke-width:0.05mm"
       id="polygon1498-2" />
    <polygon
       points="227.075,88.675 241.075,88.675 241.075,74.675 227.075,74.675 "
       style="fill:none;stroke:#000000;stroke-width:0.05mm"
       id="polygon1500-7" />
    <polygon
       points="208.025,88.675 222.025,88.675 222.025,74.675 208.025,74.675 "
       style="fill:none;stroke:#000000;stroke-width:0.05mm"
       id="polygon1502-0" />
    <polygon
       points="55.625,88.675 69.625,88.675 69.625,74.675 55.625,74.675 "
       style="fill:none;stroke:#000000;stroke-width:0.05mm"
       id="polygon1504-9" />
    <polygon
       points="36.575,88.675 50.575,88.675 50.575,74.675 36.575,74.675 "
       style="fill:none;stroke:#000000;stroke-width:0.05mm"
       id="polygon1506-3" />
    <polygon
       points="17.525,88.675 31.525,88.675 31.525,74.675 17.525,74.675 "
       style="fill:none;stroke:#000000;stroke-width:0.05mm"
       id="polygon1508-6" />
    <polygon
       points="246.125,69.625 260.125,69.625 260.125,55.625 246.125,55.625 "
       style="fill:none;stroke:#000000;stroke-width:0.05mm"
       id="polygon1510-0" />
    <polygon
       points="227.075,69.625 241.075,69.625 241.075,55.625 227.075,55.625 "
       style="fill:none;stroke:#000000;stroke-width:0.05mm"
       id="polygon1512-6" />
    <polygon
       points="208.025,69.625 222.025,69.625 222.025,55.625 208.025,55.625 "
       style="fill:none;stroke:#000000;stroke-width:0.05mm"
       id="polygon1514-2" />
    <polygon
       points="188.975,69.625 202.975,69.625 202.975,55.625 188.975,55.625 "
       style="fill:none;stroke:#000000;stroke-width:0.05mm"
       id="polygon1516-6" />
    <polygon
       points="169.925,69.625 183.925,69.625 183.925,55.625 169.925,55.625 "
       style="fill:none;stroke:#000000;stroke-width:0.05mm"
       id="polygon1518-1" />
    <polygon
       points="150.875,69.625 164.875,69.625 164.875,55.625 150.875,55.625 "
       style="fill:none;stroke:#000000;stroke-width:0.05mm"
       id="polygon1520-8" />
    <polygon
       points="112.774,69.625 126.774,69.625 126.774,55.625 112.774,55.625 "
       style="fill:none;stroke:#000000;stroke-width:0.05mm"
       id="polygon1522-7" />
    <polygon
       points="93.725,69.625 107.725,69.625 107.725,55.625 93.725,55.625 "
       style="fill:none;stroke:#000000;stroke-width:0.05mm"
       id="polygon1524-9" />
    <polygon
       points="74.675,69.625 88.675,69.625 88.675,55.625 74.675,55.625 "
       style="fill:none;stroke:#000000;stroke-width:0.05mm"
       id="polygon1526-2" />
    <polygon
       points="55.625,69.625 69.625,69.625 69.625,55.625 55.625,55.625 "
       style="fill:none;stroke:#000000;stroke-width:0.05mm"
       id="polygon1528-0" />
    <polygon
       points="36.575,69.625 50.575,69.625 50.575,55.625 36.575,55.625 "
       style="fill:none;stroke:#000000;stroke-width:0.05mm"
       id="polygon1530-2" />
    <polygon
       points="17.525,69.625 31.525,69.625 31.525,55.625 17.525,55.625 "
       style="fill:none;stroke:#000000;stroke-width:0.05mm"
       id="polygon1532-3" />
    <polygon
       points="246.125,50.574 260.125,50.574 260.125,36.574 246.125,36.574 "
       style="fill:none;stroke:#000000;stroke-width:0.05mm"
       id="polygon1536-5" />
    <polygon
       points="227.075,50.574 241.075,50.574 241.075,36.574 227.075,36.574 "
       style="fill:none;stroke:#000000;stroke-width:0.05mm"
       id="polygon1538-9" />
    <polygon
       points="208.025,50.574 222.025,50.574 222.025,36.574 208.025,36.574 "
       style="fill:none;stroke:#000000;stroke-width:0.05mm"
       id="polygon1540-2" />
    <polygon
       points="188.975,50.574 202.975,50.574 202.975,36.574 188.975,36.574 "
       style="fill:none;stroke:#000000;stroke-width:0.05mm"
       id="polygon1542-2" />
    <polygon
       points="169.925,50.574 183.925,50.574 183.925,36.574 169.925,36.574 "
       style="fill:none;stroke:#000000;stroke-width:0.05mm"
       id="polygon1544-8" />
    <polygon
       points="150.875,50.574 164.875,50.574 164.875,36.574 150.875,36.574 "
       style="fill:none;stroke:#000000;stroke-width:0.05mm"
       id="polygon1546-9" />
    <polygon
       points="112.774,50.574 126.774,50.574 126.774,36.574 112.774,36.574 "
       style="fill:none;stroke:#000000;stroke-width:0.05mm"
       id="polygon1548-7" />
    <polygon
       points="93.725,50.574 107.725,50.574 107.725,36.574 93.725,36.574 "
       style="fill:none;stroke:#000000;stroke-width:0.05mm"
       id="polygon1550-3" />
    <polygon
       points="74.675,50.574 88.675,50.574 88.675,36.574 74.675,36.574 "
       style="fill:none;stroke:#000000;stroke-width:0.05mm"
       id="polygon1552-6" />
    <polygon
       points="55.625,50.574 69.625,50.574 69.625,36.574 55.625,36.574 "
       style="fill:none;stroke:#000000;stroke-width:0.05mm"
       id="polygon1554-1" />
    <polygon
       points="36.575,50.574 50.575,50.574 50.575,36.574 36.575,36.574 "
       style="fill:none;stroke:#000000;stroke-width:0.05mm"
       id="polygon1556-2" />
    <polygon
       points="17.525,50.574 31.525,50.574 31.525,36.574 17.525,36.574 "
       style="fill:none;stroke:#000000;stroke-width:0.05mm"
       id="polygon1558-9" />
    <polygon
       points="246.125,31.525 260.125,31.525 260.125,17.525 246.125,17.525 "
       style="fill:none;stroke:#000000;stroke-width:0.05mm"
       id="polygon1560-3" />
    <polygon
       points="227.075,31.525 241.075,31.525 241.075,17.525 227.075,17.525 "
       style="fill:none;stroke:#000000;stroke-width:0.05mm"
       id="polygon1562-1" />
    <polygon
       points="208.025,31.525 222.025,31.525 222.025,17.525 208.025,17.525 "
       style="fill:none;stroke:#000000;stroke-width:0.05mm"
       id="polygon1564-9" />
    <polygon
       points="188.975,31.525 202.975,31.525 202.975,17.525 188.975,17.525 "
       style="fill:none;stroke:#000000;stroke-width:0.05mm"
       id="polygon1566-4" />
    <polygon
       points="169.925,31.525 183.925,31.525 183.925,17.525 169.925,17.525 "
       style="fill:none;stroke:#000000;stroke-width:0.05mm"
       id="polygon1568-7" />
    <polygon
       points="150.875,31.525 164.875,31.525 164.875,17.525 150.875,17.525 "
       style="fill:none;stroke:#000000;stroke-width:0.189;stroke-miterlimit:4;stroke-dasharray:none"
       id="polygon1570-8" />
    <polygon
       points="112.774,31.525 126.774,31.525 126.774,17.525 112.774,17.525 "
       style="fill:none;stroke:#000000;stroke-width:0.05mm"
       id="polygon1572-4" />
    <polygon
       points="93.725,31.525 107.725,31.525 107.725,17.525 93.725,17.525 "
       style="fill:none;stroke:#000000;stroke-width:0.05mm"
       id="polygon1574-5" />
    <polygon
       points="74.675,31.525 88.675,31.525 88.675,17.525 74.675,17.525 "
       style="fill:none;stroke:#000000;stroke-width:0.05mm"
       id="polygon1576-0" />
    <polygon
       points="55.625,31.525 69.625,31.525 69.625,17.525 55.625,17.525 "
       style="fill:none;stroke:#000000;stroke-width:0.05mm"
       id="polygon1578-3" />
    <polygon
       points="36.575,31.525 50.575,31.525 50.575,17.525 36.575,17.525 "
       style="fill:none;stroke:#000000;stroke-width:0.05mm"
       id="polygon1580-6" />
    <polygon
       points="17.525,31.525 31.525,31.525 31.525,17.525 17.525,17.525 "
       style="fill:none;stroke:#000000;stroke-width:0.05mm"
       id="polygon1582-1" />
    <polygon
       transform="translate(0,40.958)"
       points="145.825,55.337 145.825,41.337 131.825,41.337 131.825,55.337 "
       style="fill:none;stroke:#000000;stroke-width:0.05mm"
       id="polygon1534-7-2" />
    <rect
       style="opacity:1;fill:none;stroke:#000000;stroke-width:0.18900001;stroke-miterlimit:4;stroke-dasharray:none;stroke-opacity:1"
       id="rect1134"
       width="19.039524"
       height="47.619038"
       x="129.3"
       y="24.523001" />
  </g>
  <g
     inkscape:groupmode="layer"
     id="layer5"
     inkscape:label="screw_holes"
     style="display:inline"
     sodipodi:insensitive="true">
    <g
       id="g2276">
      <polygon
         transform="translate(-104.775,24.049476)"
         id="polygon1588-3"
         style="fill:none;stroke:#000000;stroke-width:0.05mm"
         points="138.485,8.953 138.178,9.11 137.935,9.353 137.779,9.66 137.725,10 137.779,10.339 137.935,10.646 138.178,10.889 138.485,11.046 138.825,11.1 139.165,11.046 139.472,10.889 139.715,10.646 139.871,10.339 139.925,10 139.871,9.66 139.715,9.353 139.472,9.11 139.165,8.953 138.825,8.9 " />
      <polygon
         transform="translate(-104.775,62.149477)"
         id="polygon1588-3-1"
         style="display:inline;fill:none;stroke:#000000;stroke-width:0.05mm"
         points="137.935,10.646 138.178,10.889 138.485,11.046 138.825,11.1 139.165,11.046 139.472,10.889 139.715,10.646 139.871,10.339 139.925,10 139.871,9.66 139.715,9.353 139.472,9.11 139.165,8.953 138.825,8.9 138.485,8.953 138.178,9.11 137.935,9.353 137.779,9.66 137.725,10 137.779,10.339 " />
      <polygon
         transform="translate(-28.575999,24.049476)"
         id="polygon1588-3-1-5"
         style="display:inline;fill:none;stroke:#000000;stroke-width:0.05mm"
         points="139.165,11.046 139.472,10.889 139.715,10.646 139.871,10.339 139.925,10 139.871,9.66 139.715,9.353 139.472,9.11 139.165,8.953 138.825,8.9 138.485,8.953 138.178,9.11 137.935,9.353 137.779,9.66 137.725,10 137.779,10.339 137.935,10.646 138.178,10.889 138.485,11.046 138.825,11.1 " />
      <polygon
         transform="translate(28.574995,24.049475)"
         id="polygon1588-3-1-5-7"
         style="display:inline;fill:none;stroke:#000000;stroke-width:0.05mm"
         points="139.871,9.66 139.715,9.353 139.472,9.11 139.165,8.953 138.825,8.9 138.485,8.953 138.178,9.11 137.935,9.353 137.779,9.66 137.725,10 137.779,10.339 137.935,10.646 138.178,10.889 138.485,11.046 138.825,11.1 139.165,11.046 139.472,10.889 139.715,10.646 139.871,10.339 139.925,10 " />
      <polygon
         transform="translate(104.77499,24.049474)"
         id="polygon1588-3-1-5-7-5"
         style="display:inline;fill:none;stroke:#000000;stroke-width:0.05mm"
         points="138.485,8.953 138.178,9.11 137.935,9.353 137.779,9.66 137.725,10 137.779,10.339 137.935,10.646 138.178,10.889 138.485,11.046 138.825,11.1 139.165,11.046 139.472,10.889 139.715,10.646 139.871,10.339 139.925,10 139.871,9.66 139.715,9.353 139.472,9.11 139.165,8.953 138.825,8.9 " />
      <polygon
         transform="translate(104.77499,62.149476)"
         id="polygon1588-3-1-5-7-5-9"
         style="display:inline;fill:none;stroke:#000000;stroke-width:0.05mm"
         points="137.779,10.339 137.935,10.646 138.178,10.889 138.485,11.046 138.825,11.1 139.165,11.046 139.472,10.889 139.715,10.646 139.871,10.339 139.925,10 139.871,9.66 139.715,9.353 139.472,9.11 139.165,8.953 138.825,8.9 138.485,8.953 138.178,9.11 137.935,9.353 137.779,9.66 137.725,10 " />
      <polygon
         transform="translate(-47.625,62.149476)"
         id="polygon1588-3-1-5-74"
         style="display:inline;fill:none;stroke:#000000;stroke-width:0.05mm"
         points="139.871,9.66 139.715,9.353 139.472,9.11 139.165,8.953 138.825,8.9 138.485,8.953 138.178,9.11 137.935,9.353 137.779,9.66 137.725,10 137.779,10.339 137.935,10.646 138.178,10.889 138.485,11.046 138.825,11.1 139.165,11.046 139.472,10.889 139.715,10.646 139.871,10.339 139.925,10 " />
      <polygon
         transform="translate(47.625006,62.149473)"
         id="polygon1588-3-1-5-74-2"
         style="display:inline;fill:none;stroke:#000000;stroke-width:0.05mm"
         points="138.485,8.953 138.178,9.11 137.935,9.353 137.779,9.66 137.725,10 137.779,10.339 137.935,10.646 138.178,10.889 138.485,11.046 138.825,11.1 139.165,11.046 139.472,10.889 139.715,10.646 139.871,10.339 139.925,10 139.871,9.66 139.715,9.353 139.472,9.11 139.165,8.953 138.825,8.9 " />
      <polygon
         transform="translate(-15.390319,78.49823)"
         id="polygon1588-3-1-5-74-4"
         style="display:inline;fill:none;stroke:#000000;stroke-width:0.05mm"
         points="138.178,9.11 137.935,9.353 137.779,9.66 137.725,10 137.779,10.339 137.935,10.646 138.178,10.889 138.485,11.046 138.825,11.1 139.165,11.046 139.472,10.889 139.715,10.646 139.871,10.339 139.925,10 139.871,9.66 139.715,9.353 139.472,9.11 139.165,8.953 138.825,8.9 138.485,8.953 " />
      <polygon
         transform="translate(15.356262,78.49823)"
         id="polygon1588-3-1-5-74-4-4"
         style="display:inline;fill:none;stroke:#000000;stroke-width:0.05mm"
         points="138.178,10.889 138.485,11.046 138.825,11.1 139.165,11.046 139.472,10.889 139.715,10.646 139.871,10.339 139.925,10 139.871,9.66 139.715,9.353 139.472,9.11 139.165,8.953 138.825,8.9 138.485,8.953 138.178,9.11 137.935,9.353 137.779,9.66 137.725,10 137.779,10.339 137.935,10.646 " />
    </g>
  </g>
</svg>
