<?xml version="1.0" encoding="UTF-8" standalone="no"?>
<svg
   xmlns:dc="http://purl.org/dc/elements/1.1/"
   xmlns:cc="http://creativecommons.org/ns#"
   xmlns:rdf="http://www.w3.org/1999/02/22-rdf-syntax-ns#"
   xmlns:svg="http://www.w3.org/2000/svg"
   xmlns="http://www.w3.org/2000/svg"
   id="svg909"
   version="1.1"
   viewBox="0.000 0.000 277.651 113.821"
   height="113.821mm"
   width="277.651mm">
  <metadata
     id="metadata915">
    <rdf:RDF>
      <cc:Work
         rdf:about="">
        <dc:format>image/svg+xml</dc:format>
        <dc:type
           rdf:resource="http://purl.org/dc/dcmitype/StillImage" />
        <dc:title></dc:title>
      </cc:Work>
    </rdf:RDF>
  </metadata>
  <defs
     id="defs913" />
  <g
     style="display:inline"
     id="layer4">
    <polygon
       id="polygon1490-6"
       style="fill:none;stroke:#000000;stroke-width:0.05mm"
       points="163.615,95.47 177.478,93.522 175.53,79.658 161.666,81.606 " />
    <polygon
       id="polygon1492-2"
       style="fill:none;stroke:#000000;stroke-width:0.05mm"
       points="114.034,95.47 115.983,81.606 102.119,79.658 100.171,93.522 " />
    <polygon
       id="polygon1494-9"
       style="fill:none;stroke:#000000;stroke-width:0.05mm"
       points="184.212,93.437 198.212,93.437 198.212,79.437 184.212,79.437 " />
    <polygon
       id="polygon1496-1"
       style="fill:none;stroke:#000000;stroke-width:0.05mm"
       points="79.437,93.437 93.437,93.437 93.437,79.437 79.437,79.437 " />
    <polygon
       id="polygon1498-2"
       style="fill:none;stroke:#000000;stroke-width:0.05mm"
       points="246.125,88.675 260.125,88.675 260.125,74.675 246.125,74.675 " />
    <polygon
       id="polygon1500-7"
       style="fill:none;stroke:#000000;stroke-width:0.05mm"
       points="227.075,88.675 241.075,88.675 241.075,74.675 227.075,74.675 " />
    <polygon
       id="polygon1502-0"
       style="fill:none;stroke:#000000;stroke-width:0.05mm"
       points="208.025,88.675 222.025,88.675 222.025,74.675 208.025,74.675 " />
    <polygon
       id="polygon1504-9"
       style="fill:none;stroke:#000000;stroke-width:0.05mm"
       points="55.625,88.675 69.625,88.675 69.625,74.675 55.625,74.675 " />
    <polygon
       id="polygon1506-3"
       style="fill:none;stroke:#000000;stroke-width:0.05mm"
       points="36.575,88.675 50.575,88.675 50.575,74.675 36.575,74.675 " />
    <polygon
       id="polygon1508-6"
       style="fill:none;stroke:#000000;stroke-width:0.05mm"
       points="17.525,88.675 31.525,88.675 31.525,74.675 17.525,74.675 " />
    <polygon
       id="polygon1510-0"
       style="fill:none;stroke:#000000;stroke-width:0.05mm"
       points="246.125,69.625 260.125,69.625 260.125,55.625 246.125,55.625 " />
    <polygon
       id="polygon1512-6"
       style="fill:none;stroke:#000000;stroke-width:0.05mm"
       points="227.075,69.625 241.075,69.625 241.075,55.625 227.075,55.625 " />
    <polygon
       id="polygon1514-2"
       style="fill:none;stroke:#000000;stroke-width:0.05mm"
       points="208.025,69.625 222.025,69.625 222.025,55.625 208.025,55.625 " />
    <polygon
       id="polygon1516-6"
       style="fill:none;stroke:#000000;stroke-width:0.05mm"
       points="188.975,69.625 202.975,69.625 202.975,55.625 188.975,55.625 " />
    <polygon
       id="polygon1518-1"
       style="fill:none;stroke:#000000;stroke-width:0.05mm"
       points="169.925,69.625 183.925,69.625 183.925,55.625 169.925,55.625 " />
    <polygon
       id="polygon1520-8"
       style="fill:none;stroke:#000000;stroke-width:0.05mm"
       points="150.875,69.625 164.875,69.625 164.875,55.625 150.875,55.625 " />
    <polygon
       id="polygon1522-7"
       style="fill:none;stroke:#000000;stroke-width:0.05mm"
       points="112.774,69.625 126.774,69.625 126.774,55.625 112.774,55.625 " />
    <polygon
       id="polygon1524-9"
       style="fill:none;stroke:#000000;stroke-width:0.05mm"
       points="93.725,69.625 107.725,69.625 107.725,55.625 93.725,55.625 " />
    <polygon
       id="polygon1526-2"
       style="fill:none;stroke:#000000;stroke-width:0.05mm"
       points="74.675,69.625 88.675,69.625 88.675,55.625 74.675,55.625 " />
    <polygon
       id="polygon1528-0"
       style="fill:none;stroke:#000000;stroke-width:0.05mm"
       points="55.625,69.625 69.625,69.625 69.625,55.625 55.625,55.625 " />
    <polygon
       id="polygon1530-2"
       style="fill:none;stroke:#000000;stroke-width:0.05mm"
       points="36.575,69.625 50.575,69.625 50.575,55.625 36.575,55.625 " />
    <polygon
       id="polygon1532-3"
       style="fill:none;stroke:#000000;stroke-width:0.05mm"
       points="17.525,69.625 31.525,69.625 31.525,55.625 17.525,55.625 " />
    <polygon
       id="polygon1536-5"
       style="fill:none;stroke:#000000;stroke-width:0.05mm"
       points="246.125,50.574 260.125,50.574 260.125,36.574 246.125,36.574 " />
    <polygon
       id="polygon1538-9"
       style="fill:none;stroke:#000000;stroke-width:0.05mm"
       points="227.075,50.574 241.075,50.574 241.075,36.574 227.075,36.574 " />
    <polygon
       id="polygon1540-2"
       style="fill:none;stroke:#000000;stroke-width:0.05mm"
       points="208.025,50.574 222.025,50.574 222.025,36.574 208.025,36.574 " />
    <polygon
       id="polygon1542-2"
       style="fill:none;stroke:#000000;stroke-width:0.05mm"
       points="188.975,50.574 202.975,50.574 202.975,36.574 188.975,36.574 " />
    <polygon
       id="polygon1544-8"
       style="fill:none;stroke:#000000;stroke-width:0.05mm"
       points="169.925,50.574 183.925,50.574 183.925,36.574 169.925,36.574 " />
    <polygon
       id="polygon1546-9"
       style="fill:none;stroke:#000000;stroke-width:0.05mm"
       points="150.875,50.574 164.875,50.574 164.875,36.574 150.875,36.574 " />
    <polygon
       id="polygon1548-7"
       style="fill:none;stroke:#000000;stroke-width:0.05mm"
       points="112.774,50.574 126.774,50.574 126.774,36.574 112.774,36.574 " />
    <polygon
       id="polygon1550-3"
       style="fill:none;stroke:#000000;stroke-width:0.05mm"
       points="93.725,50.574 107.725,50.574 107.725,36.574 93.725,36.574 " />
    <polygon
       id="polygon1552-6"
       style="fill:none;stroke:#000000;stroke-width:0.05mm"
       points="74.675,50.574 88.675,50.574 88.675,36.574 74.675,36.574 " />
    <polygon
       id="polygon1554-1"
       style="fill:none;stroke:#000000;stroke-width:0.05mm"
       points="55.625,50.574 69.625,50.574 69.625,36.574 55.625,36.574 " />
    <polygon
       id="polygon1556-2"
       style="fill:none;stroke:#000000;stroke-width:0.05mm"
       points="36.575,50.574 50.575,50.574 50.575,36.574 36.575,36.574 " />
    <polygon
       id="polygon1558-9"
       style="fill:none;stroke:#000000;stroke-width:0.05mm"
       points="17.525,50.574 31.525,50.574 31.525,36.574 17.525,36.574 " />
    <polygon
       id="polygon1560-3"
       style="fill:none;stroke:#000000;stroke-width:0.05mm"
       points="246.125,31.525 260.125,31.525 260.125,17.525 246.125,17.525 " />
    <polygon
       id="polygon1562-1"
       style="fill:none;stroke:#000000;stroke-width:0.05mm"
       points="227.075,31.525 241.075,31.525 241.075,17.525 227.075,17.525 " />
    <polygon
       id="polygon1564-9"
       style="fill:none;stroke:#000000;stroke-width:0.05mm"
       points="208.025,31.525 222.025,31.525 222.025,17.525 208.025,17.525 " />
    <polygon
       id="polygon1566-4"
       style="fill:none;stroke:#000000;stroke-width:0.05mm"
       points="188.975,31.525 202.975,31.525 202.975,17.525 188.975,17.525 " />
    <polygon
       id="polygon1568-7"
       style="fill:none;stroke:#000000;stroke-width:0.05mm"
       points="169.925,31.525 183.925,31.525 183.925,17.525 169.925,17.525 " />
    <polygon
       id="polygon1570-8"
       style="fill:none;stroke:#000000;stroke-width:0.189;stroke-miterlimit:4;stroke-dasharray:none"
       points="150.875,31.525 164.875,31.525 164.875,17.525 150.875,17.525 " />
    <polygon
       id="polygon1572-4"
       style="fill:none;stroke:#000000;stroke-width:0.05mm"
       points="112.774,31.525 126.774,31.525 126.774,17.525 112.774,17.525 " />
    <polygon
       id="polygon1574-5"
       style="fill:none;stroke:#000000;stroke-width:0.05mm"
       points="93.725,31.525 107.725,31.525 107.725,17.525 93.725,17.525 " />
    <polygon
       id="polygon1576-0"
       style="fill:none;stroke:#000000;stroke-width:0.05mm"
       points="74.675,31.525 88.675,31.525 88.675,17.525 74.675,17.525 " />
    <polygon
       id="polygon1578-3"
       style="fill:none;stroke:#000000;stroke-width:0.05mm"
       points="55.625,31.525 69.625,31.525 69.625,17.525 55.625,17.525 " />
    <polygon
       id="polygon1580-6"
       style="fill:none;stroke:#000000;stroke-width:0.05mm"
       points="36.575,31.525 50.575,31.525 50.575,17.525 36.575,17.525 " />
    <polygon
       id="polygon1582-1"
       style="fill:none;stroke:#000000;stroke-width:0.05mm"
       points="17.525,31.525 31.525,31.525 31.525,17.525 17.525,17.525 " />
    <polygon
       id="polygon1534-7-2"
       style="fill:none;stroke:#000000;stroke-width:0.05mm"
       points="145.825,55.337 145.825,41.337 131.825,41.337 131.825,55.337 "
       transform="translate(0,40.958)" />
    <rect
       y="24.523001"
       x="129.3"
       height="47.619038"
       width="19.039524"
       id="rect1134"
       style="opacity:1;fill:none;stroke:#000000;stroke-width:0.18900001;stroke-miterlimit:4;stroke-dasharray:none;stroke-opacity:1" />
  </g>
</svg>
