<?xml version="1.0" encoding="UTF-8" standalone="no"?>
<svg
   xmlns:dc="http://purl.org/dc/elements/1.1/"
   xmlns:cc="http://creativecommons.org/ns#"
   xmlns:rdf="http://www.w3.org/1999/02/22-rdf-syntax-ns#"
   xmlns:svg="http://www.w3.org/2000/svg"
   xmlns="http://www.w3.org/2000/svg"
   id="svg909"
   version="1.1"
   viewBox="0.000 0.000 277.651 113.821"
   height="113.821mm"
   width="277.651mm">
  <metadata
     id="metadata915">
    <rdf:RDF>
      <cc:Work
         rdf:about="">
        <dc:format>image/svg+xml</dc:format>
        <dc:type
           rdf:resource="http://purl.org/dc/dcmitype/StillImage" />
        <dc:title></dc:title>
      </cc:Work>
    </rdf:RDF>
  </metadata>
  <defs
     id="defs913" />
  <g
     style="display:inline"
     id="layer5">
    <g
       id="g2276">
      <polygon
         points="139.715,9.353 139.472,9.11 139.165,8.953 138.825,8.9 138.485,8.953 138.178,9.11 137.935,9.353 137.779,9.66 137.725,10 137.779,10.339 137.935,10.646 138.178,10.889 138.485,11.046 138.825,11.1 139.165,11.046 139.472,10.889 139.715,10.646 139.871,10.339 139.925,10 139.871,9.66 "
         style="fill:none;stroke:#000000;stroke-width:0.05mm"
         id="polygon1588-3"
         transform="translate(-104.775,24.049476)" />
      <polygon
         points="137.935,9.353 137.779,9.66 137.725,10 137.779,10.339 137.935,10.646 138.178,10.889 138.485,11.046 138.825,11.1 139.165,11.046 139.472,10.889 139.715,10.646 139.871,10.339 139.925,10 139.871,9.66 139.715,9.353 139.472,9.11 139.165,8.953 138.825,8.9 138.485,8.953 138.178,9.11 "
         style="display:inline;fill:none;stroke:#000000;stroke-width:0.05mm"
         id="polygon1588-3-1"
         transform="translate(-104.775,62.149477)" />
      <polygon
         points="137.935,10.646 138.178,10.889 138.485,11.046 138.825,11.1 139.165,11.046 139.472,10.889 139.715,10.646 139.871,10.339 139.925,10 139.871,9.66 139.715,9.353 139.472,9.11 139.165,8.953 138.825,8.9 138.485,8.953 138.178,9.11 137.935,9.353 137.779,9.66 137.725,10 137.779,10.339 "
         style="display:inline;fill:none;stroke:#000000;stroke-width:0.05mm"
         id="polygon1588-3-1-5"
         transform="translate(-28.575999,24.049476)" />
      <polygon
         points="139.472,10.889 139.715,10.646 139.871,10.339 139.925,10 139.871,9.66 139.715,9.353 139.472,9.11 139.165,8.953 138.825,8.9 138.485,8.953 138.178,9.11 137.935,9.353 137.779,9.66 137.725,10 137.779,10.339 137.935,10.646 138.178,10.889 138.485,11.046 138.825,11.1 139.165,11.046 "
         style="display:inline;fill:none;stroke:#000000;stroke-width:0.05mm"
         id="polygon1588-3-1-5-7"
         transform="translate(28.574995,24.049475)" />
      <polygon
         points="139.715,9.353 139.472,9.11 139.165,8.953 138.825,8.9 138.485,8.953 138.178,9.11 137.935,9.353 137.779,9.66 137.725,10 137.779,10.339 137.935,10.646 138.178,10.889 138.485,11.046 138.825,11.1 139.165,11.046 139.472,10.889 139.715,10.646 139.871,10.339 139.925,10 139.871,9.66 "
         style="display:inline;fill:none;stroke:#000000;stroke-width:0.05mm"
         id="polygon1588-3-1-5-7-5"
         transform="translate(104.77499,24.049474)" />
      <polygon
         points="138.178,9.11 137.935,9.353 137.779,9.66 137.725,10 137.779,10.339 137.935,10.646 138.178,10.889 138.485,11.046 138.825,11.1 139.165,11.046 139.472,10.889 139.715,10.646 139.871,10.339 139.925,10 139.871,9.66 139.715,9.353 139.472,9.11 139.165,8.953 138.825,8.9 138.485,8.953 "
         style="display:inline;fill:none;stroke:#000000;stroke-width:0.05mm"
         id="polygon1588-3-1-5-7-5-9"
         transform="translate(104.77499,62.149476)" />
      <polygon
         points="139.472,10.889 139.715,10.646 139.871,10.339 139.925,10 139.871,9.66 139.715,9.353 139.472,9.11 139.165,8.953 138.825,8.9 138.485,8.953 138.178,9.11 137.935,9.353 137.779,9.66 137.725,10 137.779,10.339 137.935,10.646 138.178,10.889 138.485,11.046 138.825,11.1 139.165,11.046 "
         style="display:inline;fill:none;stroke:#000000;stroke-width:0.05mm"
         id="polygon1588-3-1-5-74"
         transform="translate(-47.625,62.149476)" />
      <polygon
         points="139.715,9.353 139.472,9.11 139.165,8.953 138.825,8.9 138.485,8.953 138.178,9.11 137.935,9.353 137.779,9.66 137.725,10 137.779,10.339 137.935,10.646 138.178,10.889 138.485,11.046 138.825,11.1 139.165,11.046 139.472,10.889 139.715,10.646 139.871,10.339 139.925,10 139.871,9.66 "
         style="display:inline;fill:none;stroke:#000000;stroke-width:0.05mm"
         id="polygon1588-3-1-5-74-2"
         transform="translate(47.625006,62.149473)" />
      <polygon
         points="139.472,9.11 139.165,8.953 138.825,8.9 138.485,8.953 138.178,9.11 137.935,9.353 137.779,9.66 137.725,10 137.779,10.339 137.935,10.646 138.178,10.889 138.485,11.046 138.825,11.1 139.165,11.046 139.472,10.889 139.715,10.646 139.871,10.339 139.925,10 139.871,9.66 139.715,9.353 "
         style="display:inline;fill:none;stroke:#000000;stroke-width:0.05mm"
         id="polygon1588-3-1-5-74-4"
         transform="translate(-15.390319,78.49823)" />
      <polygon
         points="137.779,9.66 137.725,10 137.779,10.339 137.935,10.646 138.178,10.889 138.485,11.046 138.825,11.1 139.165,11.046 139.472,10.889 139.715,10.646 139.871,10.339 139.925,10 139.871,9.66 139.715,9.353 139.472,9.11 139.165,8.953 138.825,8.9 138.485,8.953 138.178,9.11 137.935,9.353 "
         style="display:inline;fill:none;stroke:#000000;stroke-width:0.05mm"
         id="polygon1588-3-1-5-74-4-4"
         transform="translate(15.356262,78.49823)" />
    </g>
  </g>
</svg>
