<?xml version="1.0" encoding="UTF-8" standalone="no"?>
<!-- Generated by SVGo -->

<svg
   xmlns:dc="http://purl.org/dc/elements/1.1/"
   xmlns:cc="http://creativecommons.org/ns#"
   xmlns:rdf="http://www.w3.org/1999/02/22-rdf-syntax-ns#"
   xmlns:svg="http://www.w3.org/2000/svg"
   xmlns="http://www.w3.org/2000/svg"
   xmlns:sodipodi="http://sodipodi.sourceforge.net/DTD/sodipodi-0.dtd"
   xmlns:inkscape="http://www.inkscape.org/namespaces/inkscape"
   width="315.751mm"
   height="149.231mm"
   viewBox="0.000 0.000 315.751 149.231"
   version="1.1"
   id="svg3186"
   sodipodi:docname="screw_holes.svg"
   inkscape:version="0.92.3 (2405546, 2018-03-11)">
  <metadata
     id="metadata3192">
    <rdf:RDF>
      <cc:Work
         rdf:about="">
        <dc:format>image/svg+xml</dc:format>
        <dc:type
           rdf:resource="http://purl.org/dc/dcmitype/StillImage" />
        <dc:title></dc:title>
      </cc:Work>
    </rdf:RDF>
  </metadata>
  <defs
     id="defs3190" />
  <sodipodi:namedview
     pagecolor="#ffffff"
     bordercolor="#666666"
     borderopacity="1"
     objecttolerance="10"
     gridtolerance="10"
     guidetolerance="10"
     inkscape:pageopacity="0"
     inkscape:pageshadow="2"
     inkscape:window-width="2258"
     inkscape:window-height="1781"
     id="namedview3188"
     showgrid="false"
     inkscape:zoom="2.413294"
     inkscape:cx="216.82629"
     inkscape:cy="269.03895"
     inkscape:window-x="580"
     inkscape:window-y="160"
     inkscape:window-maximized="0"
     inkscape:current-layer="layer11" />
  <g
     inkscape:groupmode="layer"
     id="layer11"
     inkscape:label="screw_hole"
     style="display:inline"
     sodipodi:insensitive="true">
    <polygon
       points="9.66,8.953 9.353,9.11 9.11,9.353 8.953,9.66 8.899,10 8.953,10.339 9.11,10.646 9.353,10.889 9.66,11.046 10,11.1 10.339,11.046 10.646,10.889 10.889,10.646 11.046,10.339 11.1,10 11.046,9.66 10.889,9.353 10.646,9.11 10.339,8.953 10,8.9 "
       style="display:inline;fill:none;stroke:#000000;stroke-width:0.05mm"
       id="polygon3890"
       transform="translate(9.184792,38.887949)" />
    <polygon
       points="8.953,10.339 9.11,10.646 9.353,10.889 9.66,11.046 10,11.1 10.339,11.046 10.646,10.889 10.889,10.646 11.046,10.339 11.1,10 11.046,9.66 10.889,9.353 10.646,9.11 10.339,8.953 10,8.9 9.66,8.953 9.353,9.11 9.11,9.353 8.953,9.66 8.899,10 "
       style="display:inline;fill:none;stroke:#000000;stroke-width:0.05mm"
       id="polygon3890-3"
       transform="translate(47.284791,38.887959)" />
    <polygon
       points="10.339,11.046 10.646,10.889 10.889,10.646 11.046,10.339 11.1,10 11.046,9.66 10.889,9.353 10.646,9.11 10.339,8.953 10,8.9 9.66,8.953 9.353,9.11 9.11,9.353 8.953,9.66 8.899,10 8.953,10.339 9.11,10.646 9.353,10.889 9.66,11.046 10,11.1 "
       style="display:inline;fill:none;stroke:#000000;stroke-width:0.05mm"
       id="polygon3890-3-1"
       transform="translate(85.383787,38.887967)" />
    <polygon
       points="10.646,10.889 10.889,10.646 11.046,10.339 11.1,10 11.046,9.66 10.889,9.353 10.646,9.11 10.339,8.953 10,8.9 9.66,8.953 9.353,9.11 9.11,9.353 8.953,9.66 8.899,10 8.953,10.339 9.11,10.646 9.353,10.889 9.66,11.046 10,11.1 10.339,11.046 "
       style="display:inline;fill:none;stroke:#000000;stroke-width:0.05mm"
       id="polygon3890-7-2"
       transform="translate(47.284791,76.987968)" />
    <polygon
       points="8.899,10 8.953,10.339 9.11,10.646 9.353,10.889 9.66,11.046 10,11.1 10.339,11.046 10.646,10.889 10.889,10.646 11.046,10.339 11.1,10 11.046,9.66 10.889,9.353 10.646,9.11 10.339,8.953 10,8.9 9.66,8.953 9.353,9.11 9.11,9.353 8.953,9.66 "
       style="display:inline;fill:none;stroke:#000000;stroke-width:0.05mm"
       id="polygon3890-7-2-7"
       transform="translate(85.384287,76.98795)" />
    <polygon
       points="8.953,10.339 9.11,10.646 9.353,10.889 9.66,11.046 10,11.1 10.339,11.046 10.646,10.889 10.889,10.646 11.046,10.339 11.1,10 11.046,9.66 10.889,9.353 10.646,9.11 10.339,8.953 10,8.9 9.66,8.953 9.353,9.11 9.11,9.353 8.953,9.66 8.899,10 "
       style="display:inline;fill:none;stroke:#000000;stroke-width:0.05mm"
       id="polygon3890-7"
       transform="translate(9.184792,96.037949)" />
    <polygon
       points="10,11.1 10.339,11.046 10.646,10.889 10.889,10.646 11.046,10.339 11.1,10 11.046,9.66 10.889,9.353 10.646,9.11 10.339,8.953 10,8.9 9.66,8.953 9.353,9.11 9.11,9.353 8.953,9.66 8.899,10 8.953,10.339 9.11,10.646 9.353,10.889 9.66,11.046 "
       style="display:inline;fill:none;stroke:#000000;stroke-width:0.05mm"
       id="polygon3890-7-2-7-9"
       transform="rotate(15,-434.99601,503.01595)" />
    <polygon
       points="10.339,8.953 10,8.9 9.66,8.953 9.353,9.11 9.11,9.353 8.953,9.66 8.899,10 8.953,10.339 9.11,10.646 9.353,10.889 9.66,11.046 10,11.1 10.339,11.046 10.646,10.889 10.889,10.646 11.046,10.339 11.1,10 11.046,9.66 10.889,9.353 10.646,9.11 "
       style="display:inline;fill:none;stroke:#000000;stroke-width:0.05mm"
       id="polygon3890-7-2-7-9-6"
       transform="rotate(30.000001,-143.30809,285.80107)" />
  </g>
</svg>
