<?xml version="1.0" encoding="UTF-8" standalone="no"?>
<!-- Generated by SVGo -->

<svg
   xmlns:dc="http://purl.org/dc/elements/1.1/"
   xmlns:cc="http://creativecommons.org/ns#"
   xmlns:rdf="http://www.w3.org/1999/02/22-rdf-syntax-ns#"
   xmlns:svg="http://www.w3.org/2000/svg"
   xmlns="http://www.w3.org/2000/svg"
   xmlns:sodipodi="http://sodipodi.sourceforge.net/DTD/sodipodi-0.dtd"
   xmlns:inkscape="http://www.inkscape.org/namespaces/inkscape"
   width="325.751mm"
   height="164.314mm"
   viewBox="0.000 0.000 325.751 164.314"
   version="1.1"
   id="svg972"
   sodipodi:docname="all_plates.svg"
   inkscape:version="0.92.3 (2405546, 2018-03-11)">
  <metadata
     id="metadata978">
    <rdf:RDF>
      <cc:Work
         rdf:about="">
        <dc:format>image/svg+xml</dc:format>
        <dc:type
           rdf:resource="http://purl.org/dc/dcmitype/StillImage" />
        <dc:title />
      </cc:Work>
    </rdf:RDF>
  </metadata>
  <defs
     id="defs976" />
  <sodipodi:namedview
     pagecolor="#ffffff"
     bordercolor="#666666"
     borderopacity="1"
     objecttolerance="10"
     gridtolerance="10"
     guidetolerance="10"
     inkscape:pageopacity="0"
     inkscape:pageshadow="2"
     inkscape:window-width="1706"
     inkscape:window-height="1353"
     id="namedview974"
     showgrid="false"
     inkscape:zoom="1.0843356"
     inkscape:cx="197.45062"
     inkscape:cy="117.06737"
     inkscape:window-x="1576"
     inkscape:window-y="447"
     inkscape:window-maximized="0"
     inkscape:current-layer="layer4" />
  <g
     inkscape:groupmode="layer"
     id="layer4"
     inkscape:label="Auxiliary line"
     style="display:none"
     sodipodi:insensitive="true">
    <rect
       style="opacity:1;fill:none;stroke:#000000;stroke-width:0.18900001;stroke-miterlimit:4;stroke-dasharray:none;stroke-opacity:1"
       id="rect1312"
       width="19.052"
       height="76.202003"
       x="115.556"
       y="27.299" />
    <rect
       style="display:inline;opacity:1;fill:none;stroke:#000000;stroke-width:0.18900001;stroke-miterlimit:4;stroke-dasharray:none;stroke-opacity:1"
       id="rect1305"
       width="33.334999"
       height="7.1440001"
       x="58.408001"
       y="117.78901" />
    <rect
       style="opacity:1;fill:none;stroke:#000000;stroke-width:0.18900001;stroke-miterlimit:4;stroke-dasharray:none;stroke-opacity:1"
       id="rect1537"
       width="5.0500002"
       height="5.0500002"
       x="36.832001"
       y="46.207001" />
    <rect
       style="opacity:1;fill:none;stroke:#000000;stroke-width:0.18900001;stroke-miterlimit:4;stroke-dasharray:none;stroke-opacity:1"
       id="rect1539"
       width="5.0500002"
       height="5.0500002"
       x="36.832001"
       y="103.356" />
    <rect
       style="display:inline;opacity:1;fill:none;stroke:#000000;stroke-width:0.18900001;stroke-miterlimit:4;stroke-dasharray:none;stroke-opacity:1"
       id="rect1539-7"
       width="5.0500007"
       height="5.0500007"
       x="113.032"
       y="43.825001" />
    <rect
       style="display:inline;opacity:1;fill:none;stroke:#000000;stroke-width:0.18900001;stroke-miterlimit:4;stroke-dasharray:none;stroke-opacity:1"
       id="rect1539-7-5"
       width="5.0500007"
       height="5.0500007"
       x="74.931999"
       y="58.112995" />
    <rect
       style="display:inline;opacity:1;fill:none;stroke:#000000;stroke-width:0.18900001;stroke-miterlimit:4;stroke-dasharray:none;stroke-opacity:1"
       id="rect1539-7-5-3"
       width="5.0500007"
       height="5.0500007"
       x="113.032"
       y="81.925003" />
    <path
       style="fill:none;stroke:#000000;stroke-width:0.26458332px;stroke-linecap:butt;stroke-linejoin:miter;stroke-opacity:1"
       d="m 131.839,110.867 4.822,22.043 3.859,-13.458 -10.629,5.279"
       id="path1666"
       inkscape:connector-curvature="0" />
    <rect
       style="opacity:1;fill:none;stroke:#000000;stroke-width:0.18900001;stroke-miterlimit:4;stroke-dasharray:none;stroke-opacity:1"
       id="rect962"
       width="21.431"
       height="57.152"
       x="134.608"
       y="46.349003" />
    <polygon
       transform="translate(130.63895,76.94949)"
       id="polygon176-7-2-6-3-7-0"
       style="display:inline;fill:none;stroke:#ff0000;stroke-width:0.1;stroke-miterlimit:4;stroke-dasharray:none;stroke-opacity:1"
       points="7.839,8.547 8.146,8.39 8.389,8.147 8.546,7.84 8.6,7.501 8.546,7.161 8.389,6.854 8.146,6.611 7.839,6.454 7.5,6.401 7.16,6.454 6.853,6.611 6.61,6.854 6.453,7.161 6.4,7.501 6.453,7.84 6.61,8.147 6.853,8.39 7.16,8.547 7.5,8.601 " />
    <polygon
       transform="translate(144.98074,76.9378)"
       id="polygon176-7-2-6-4-5-8-2"
       style="display:inline;fill:none;stroke:#ff0000;stroke-width:0.1;stroke-miterlimit:4;stroke-dasharray:none;stroke-opacity:1"
       points="8.546,7.161 8.389,6.854 8.146,6.611 7.839,6.454 7.5,6.401 7.16,6.454 6.853,6.611 6.61,6.854 6.453,7.161 6.4,7.501 6.453,7.84 6.61,8.147 6.853,8.39 7.16,8.547 7.5,8.601 7.839,8.547 8.146,8.39 8.389,8.147 8.546,7.84 8.6,7.501 " />
    <polygon
       points="9.998,9.998 9.998,67.151 29.051,67.151 29.051,9.998 "
       style="fill:none;stroke:#0000ff;stroke-width:0.1;stroke-miterlimit:4;stroke-dasharray:none"
       id="polygon6576-9-9-1"
       transform="translate(125.799,36.3505)" />
  </g>
  <g
     inkscape:groupmode="layer"
     id="layer1"
     inkscape:label="base key holes"
     style="display:none"
     sodipodi:insensitive="true">
    <g
       id="g1208"
       transform="translate(0.307,0.157)">
      <polygon
         id="polygon834"
         style="fill:none;stroke:#000000;stroke-width:0.05mm"
         points="5,5 320.751,5 320.751,159.314 5,159.314 " />
      <polygon
         id="polygon836"
         style="fill:none;stroke:#000000;stroke-width:0.05mm"
         points="11.1,154.314 11.046,153.974 10.889,153.668 10.646,153.424 10.339,153.268 10,153.214 9.66,153.268 9.353,153.424 9.11,153.668 8.953,153.974 8.899,154.314 8.953,154.654 9.11,154.961 9.353,155.204 9.66,155.36 10,155.414 10.339,155.36 10.646,155.204 10.889,154.961 11.046,154.654 " />
      <polygon
         id="polygon838"
         style="fill:none;stroke:#000000;stroke-width:0.05mm"
         points="163.975,154.314 163.921,153.974 163.765,153.668 163.522,153.424 163.215,153.268 162.875,153.214 162.535,153.268 162.228,153.424 161.985,153.668 161.829,153.974 161.775,154.314 161.829,154.654 161.985,154.961 162.228,155.204 162.535,155.36 162.875,155.414 163.215,155.36 163.522,155.204 163.765,154.961 163.921,154.654 " />
      <polygon
         id="polygon840"
         style="fill:none;stroke:#000000;stroke-width:0.05mm"
         points="316.851,154.314 316.797,153.974 316.64,153.668 316.397,153.424 316.09,153.268 315.751,153.214 315.411,153.268 315.104,153.424 314.861,153.668 314.704,153.974 314.651,154.314 314.704,154.654 314.861,154.961 315.104,155.204 315.411,155.36 315.751,155.414 316.09,155.36 316.397,155.204 316.64,154.961 316.797,154.654 " />
      <polygon
         id="polygon842"
         style="fill:none;stroke:#000000;stroke-width:0.05mm"
         points="153.671,123.154 140.213,119.295 136.354,132.753 149.812,136.612 " />
      <polygon
         id="polygon844"
         style="fill:none;stroke:#000000;stroke-width:0.05mm"
         points="188.082,128.175 184.223,114.717 170.766,118.576 174.624,132.034 " />
      <polygon
         id="polygon846"
         style="fill:none;stroke:#000000;stroke-width:0.05mm"
         points="131.532,110.71 117.669,108.762 115.72,122.625 129.584,124.574 " />
      <polygon
         id="polygon848"
         style="fill:none;stroke:#000000;stroke-width:0.05mm"
         points="107.962,122.25 107.962,108.25 93.962,108.25 93.962,122.25 " />
      <polygon
         id="polygon850"
         style="fill:none;stroke:#000000;stroke-width:0.05mm"
         points="303.225,122.249 303.225,108.249 289.225,108.249 289.225,122.249 " />
      <polygon
         id="polygon852"
         style="fill:none;stroke:#000000;stroke-width:0.05mm"
         points="284.175,122.249 284.175,108.249 270.175,108.249 270.175,122.249 " />
      <polygon
         id="polygon854"
         style="fill:none;stroke:#000000;stroke-width:0.05mm"
         points="231.787,122.249 231.787,108.249 217.787,108.249 217.787,122.249 " />
      <polygon
         id="polygon856"
         style="fill:none;stroke:#000000;stroke-width:0.05mm"
         points="55.575,122.249 55.575,108.249 41.575,108.249 41.575,122.249 " />
      <polygon
         id="polygon858"
         style="fill:none;stroke:#000000;stroke-width:0.05mm"
         points="36.525,122.249 36.525,108.249 22.525,108.249 22.525,122.249 " />
      <polygon
         id="polygon860"
         style="fill:none;stroke:#000000;stroke-width:0.05mm"
         points="209.366,117.909 207.418,104.046 193.554,105.994 195.502,119.858 " />
      <polygon
         id="polygon862"
         style="fill:none;stroke:#000000;stroke-width:0.05mm"
         points="265.125,115.106 265.125,101.106 251.125,101.106 251.125,115.106 " />
      <polygon
         id="polygon864"
         style="fill:none;stroke:#000000;stroke-width:0.05mm"
         points="74.625,115.106 74.625,101.106 60.625,101.106 60.625,115.106 " />
      <polygon
         id="polygon866"
         style="fill:none;stroke:#000000;stroke-width:0.05mm"
         points="303.225,103.199 303.225,89.199 289.225,89.199 289.225,103.199 " />
      <polygon
         id="polygon868"
         style="fill:none;stroke:#000000;stroke-width:0.05mm"
         points="284.175,103.199 284.175,89.199 270.175,89.199 270.175,103.199 " />
      <polygon
         id="polygon870"
         style="fill:none;stroke:#000000;stroke-width:0.05mm"
         points="55.575,103.199 55.575,89.199 41.575,89.199 41.575,103.199 " />
      <polygon
         id="polygon872"
         style="fill:none;stroke:#000000;stroke-width:0.05mm"
         points="36.525,103.199 36.525,89.199 22.525,89.199 22.525,103.199 " />
      <polygon
         id="polygon874"
         style="fill:none;stroke:#000000;stroke-width:0.05mm"
         points="207.975,100.818 207.975,86.818 193.975,86.818 193.975,100.818 " />
      <polygon
         id="polygon876"
         style="fill:none;stroke:#000000;stroke-width:0.05mm"
         points="131.775,100.818 131.775,86.818 117.775,86.818 117.775,100.818 " />
      <polygon
         id="polygon878"
         style="fill:none;stroke:#000000;stroke-width:0.05mm"
         points="227.025,98.437 227.025,84.437 213.025,84.437 213.025,98.437 " />
      <polygon
         id="polygon880"
         style="fill:none;stroke:#000000;stroke-width:0.05mm"
         points="112.725,98.437 112.725,84.437 98.725,84.437 98.725,98.437 " />
      <polygon
         id="polygon882"
         style="fill:none;stroke:#000000;stroke-width:0.05mm"
         points="173.964,57.368 173.964,59.093 178.434,59.093 178.434,67.768 173.734,67.768 173.734,81.768 178.434,81.768 178.434,90.443 173.964,90.443 173.964,92.168 172.984,92.168 172.984,95.468 173.964,95.468 173.964,97.193 180.234,97.193 180.234,98.018 183.034,98.018 183.034,97.193 186.264,97.193 186.264,95.468 187.184,95.468 187.184,92.168 186.264,92.168 186.264,90.443 183.034,90.443 183.034,81.768 187.734,81.768 187.734,67.768 183.034,67.768 183.034,59.093 186.264,59.093 186.264,57.368 187.184,57.368 187.184,54.068 186.264,54.068 186.264,52.343 183.034,52.343 183.034,51.518 180.234,51.518 180.234,52.343 173.964,52.343 173.964,54.068 172.984,54.068 172.984,57.368 " />
      <polygon
         id="polygon884"
         style="fill:none;stroke:#000000;stroke-width:0.05mm"
         points="138.245,57.368 138.245,59.093 142.715,59.093 142.715,67.768 138.015,67.768 138.015,81.768 142.715,81.768 142.715,90.443 138.245,90.443 138.245,92.168 137.265,92.168 137.265,95.468 138.245,95.468 138.245,97.193 144.515,97.193 144.515,98.018 147.315,98.018 147.315,97.193 150.545,97.193 150.545,95.468 151.465,95.468 151.465,92.168 150.545,92.168 150.545,90.443 147.315,90.443 147.315,81.768 152.015,81.768 152.015,67.768 147.315,67.768 147.315,59.093 150.545,59.093 150.545,57.368 151.465,57.368 151.465,54.068 150.545,54.068 150.545,52.343 147.315,52.343 147.315,51.518 144.515,51.518 144.515,52.343 138.245,52.343 138.245,54.068 137.265,54.068 137.265,57.368 " />
      <polygon
         id="polygon886"
         style="fill:none;stroke:#000000;stroke-width:0.05mm"
         points="265.125,96.056 265.125,82.056 251.125,82.056 251.125,96.056 " />
      <polygon
         id="polygon888"
         style="fill:none;stroke:#000000;stroke-width:0.05mm"
         points="74.625,96.056 74.625,82.056 60.625,82.056 60.625,96.056 " />
      <polygon
         id="polygon890"
         style="fill:none;stroke:#000000;stroke-width:0.05mm"
         points="246.075,93.675 246.075,79.675 232.075,79.675 232.075,93.675 " />
      <polygon
         id="polygon892"
         style="fill:none;stroke:#000000;stroke-width:0.05mm"
         points="93.675,93.675 93.675,79.675 79.675,79.675 79.675,93.675 " />
      <polygon
         id="polygon894"
         style="fill:none;stroke:#000000;stroke-width:0.05mm"
         points="303.225,84.15 303.225,70.15 289.225,70.15 289.225,84.15 " />
      <polygon
         id="polygon896"
         style="fill:none;stroke:#000000;stroke-width:0.05mm"
         points="284.175,84.15 284.175,70.15 270.175,70.15 270.175,84.15 " />
      <polygon
         id="polygon898"
         style="fill:none;stroke:#000000;stroke-width:0.05mm"
         points="55.575,84.15 55.575,70.15 41.575,70.15 41.575,84.15 " />
      <polygon
         id="polygon900"
         style="fill:none;stroke:#000000;stroke-width:0.05mm"
         points="36.525,84.15 36.525,70.15 22.525,70.15 22.525,84.15 " />
      <polygon
         id="polygon902"
         style="fill:none;stroke:#000000;stroke-width:0.05mm"
         points="207.975,81.768 207.975,67.768 193.975,67.768 193.975,81.768 " />
      <polygon
         id="polygon904"
         style="fill:none;stroke:#000000;stroke-width:0.05mm"
         points="131.775,81.768 131.775,67.768 117.775,67.768 117.775,81.768 " />
      <polygon
         id="polygon906"
         style="fill:none;stroke:#000000;stroke-width:0.05mm"
         points="227.025,79.387 227.025,65.387 213.025,65.387 213.025,79.387 " />
      <polygon
         id="polygon908"
         style="fill:none;stroke:#000000;stroke-width:0.05mm"
         points="112.725,79.387 112.725,65.387 98.725,65.387 98.725,79.387 " />
      <polygon
         id="polygon910"
         style="fill:none;stroke:#000000;stroke-width:0.05mm"
         points="265.125,77.006 265.125,63.006 251.125,63.006 251.125,77.006 " />
      <polygon
         id="polygon912"
         style="fill:none;stroke:#000000;stroke-width:0.05mm"
         points="74.625,77.006 74.625,63.006 60.625,63.006 60.625,77.006 " />
      <polygon
         id="polygon914"
         style="fill:none;stroke:#000000;stroke-width:0.05mm"
         points="246.075,74.625 246.075,60.625 232.075,60.625 232.075,74.625 " />
      <polygon
         id="polygon916"
         style="fill:none;stroke:#000000;stroke-width:0.05mm"
         points="93.675,74.625 93.675,60.625 79.675,60.625 79.675,74.625 " />
      <polygon
         id="polygon918"
         style="fill:none;stroke:#000000;stroke-width:0.05mm"
         points="303.225,65.099 303.225,51.1 289.225,51.1 289.225,65.099 " />
      <polygon
         id="polygon920"
         style="fill:none;stroke:#000000;stroke-width:0.05mm"
         points="284.175,65.099 284.175,51.1 270.175,51.1 270.175,65.099 " />
      <polygon
         id="polygon922"
         style="fill:none;stroke:#000000;stroke-width:0.05mm"
         points="55.575,65.099 55.575,51.1 41.575,51.1 41.575,65.099 " />
      <polygon
         id="polygon924"
         style="fill:none;stroke:#000000;stroke-width:0.05mm"
         points="36.525,65.099 36.525,51.1 22.525,51.1 22.525,65.099 " />
      <polygon
         id="polygon926"
         style="fill:none;stroke:#000000;stroke-width:0.05mm"
         points="207.975,62.718 207.975,48.718 193.975,48.718 193.975,62.718 " />
      <polygon
         id="polygon928"
         style="fill:none;stroke:#000000;stroke-width:0.05mm"
         points="131.775,62.718 131.775,48.718 117.775,48.718 117.775,62.718 " />
      <polygon
         id="polygon930"
         style="fill:none;stroke:#000000;stroke-width:0.05mm"
         points="227.025,60.337 227.025,46.337 213.025,46.337 213.025,60.337 " />
      <polygon
         id="polygon932"
         style="fill:none;stroke:#000000;stroke-width:0.05mm"
         points="112.725,60.337 112.725,46.337 98.725,46.337 98.725,60.337 " />
      <polygon
         id="polygon934"
         style="fill:none;stroke:#000000;stroke-width:0.05mm"
         points="265.125,57.956 265.125,43.956 251.125,43.956 251.125,57.956 " />
      <polygon
         id="polygon936"
         style="fill:none;stroke:#000000;stroke-width:0.05mm"
         points="74.625,57.956 74.625,43.956 60.625,43.956 60.625,57.956 " />
      <polygon
         id="polygon938"
         style="fill:none;stroke:#000000;stroke-width:0.05mm"
         points="246.075,55.575 246.075,41.575 232.075,41.575 232.075,55.575 " />
      <polygon
         id="polygon940"
         style="fill:none;stroke:#000000;stroke-width:0.05mm"
         points="93.675,55.575 93.675,41.575 79.675,41.575 79.675,55.575 " />
      <polygon
         id="polygon942"
         style="fill:none;stroke:#000000;stroke-width:0.05mm"
         points="303.225,46.05 303.225,32.049 289.225,32.049 289.225,46.05 " />
      <polygon
         id="polygon944"
         style="fill:none;stroke:#000000;stroke-width:0.05mm"
         points="284.175,46.05 284.175,32.049 270.175,32.049 270.175,46.05 " />
      <polygon
         id="polygon946"
         style="fill:none;stroke:#000000;stroke-width:0.05mm"
         points="55.575,46.05 55.575,32.049 41.575,32.049 41.575,46.05 " />
      <polygon
         id="polygon948"
         style="fill:none;stroke:#000000;stroke-width:0.05mm"
         points="36.525,46.05 36.525,32.049 22.525,32.049 22.525,46.05 " />
      <polygon
         id="polygon950"
         style="fill:none;stroke:#000000;stroke-width:0.05mm"
         points="207.975,43.668 207.975,29.668 193.975,29.668 193.975,43.668 " />
      <polygon
         id="polygon952"
         style="fill:none;stroke:#000000;stroke-width:0.05mm"
         points="131.775,43.668 131.775,29.668 117.775,29.668 117.775,43.668 " />
      <polygon
         id="polygon954"
         style="fill:none;stroke:#000000;stroke-width:0.05mm"
         points="227.025,41.287 227.025,27.287 213.025,27.287 213.025,41.287 " />
      <polygon
         id="polygon956"
         style="fill:none;stroke:#000000;stroke-width:0.05mm"
         points="112.725,41.287 112.725,27.287 98.725,27.287 98.725,41.287 " />
      <polygon
         id="polygon958"
         style="fill:none;stroke:#000000;stroke-width:0.05mm"
         points="265.125,38.906 265.125,24.906 251.125,24.906 251.125,38.906 " />
      <polygon
         id="polygon960"
         style="fill:none;stroke:#000000;stroke-width:0.05mm"
         points="74.625,38.906 74.625,24.906 60.625,24.906 60.625,38.906 " />
      <polygon
         id="polygon962"
         style="fill:none;stroke:#000000;stroke-width:0.05mm"
         points="246.075,36.525 246.075,22.525 232.075,22.525 232.075,36.525 " />
      <polygon
         id="polygon964"
         style="fill:none;stroke:#000000;stroke-width:0.05mm"
         points="93.675,36.525 93.675,22.525 79.675,22.525 79.675,36.525 " />
      <polygon
         id="polygon966"
         style="fill:none;stroke:#000000;stroke-width:0.05mm"
         points="11.1,10 11.046,9.66 10.889,9.353 10.646,9.11 10.339,8.953 10,8.9 9.66,8.953 9.353,9.11 9.11,9.353 8.953,9.66 8.899,10 8.953,10.339 9.11,10.646 9.353,10.889 9.66,11.046 10,11.1 10.339,11.046 10.646,10.889 10.889,10.646 11.046,10.339 " />
      <polygon
         id="polygon968"
         style="fill:none;stroke:#000000;stroke-width:0.05mm"
         points="316.851,10 316.797,9.66 316.64,9.353 316.397,9.11 316.09,8.953 315.751,8.9 315.411,8.953 315.104,9.11 314.861,9.353 314.704,9.66 314.651,10 314.704,10.339 314.861,10.646 315.104,10.889 315.411,11.046 315.751,11.1 316.09,11.046 316.397,10.889 316.64,10.646 316.797,10.339 " />
      <polygon
         id="polygon970"
         style="fill:none;stroke:#000000;stroke-width:0.05mm"
         points="163.975,10 163.921,9.66 163.765,9.353 163.522,9.11 163.215,8.953 162.875,8.9 162.535,8.953 162.228,9.11 161.985,9.353 161.829,9.66 161.775,10 161.829,10.339 161.985,10.646 162.228,10.889 162.535,11.046 162.875,11.1 163.215,11.046 163.522,10.889 163.765,10.646 163.921,10.339 " />
    </g>
  </g>
  <g
     inkscape:groupmode="layer"
     id="layer2"
     inkscape:label="base plate"
     style="display:none"
     sodipodi:insensitive="true">
    <g
       id="g1137"
       transform="translate(16.348285,-88.651335)">
      <g
         transform="translate(-16.041285,88.808335)"
         id="g1120">
        <polygon
           points="5,159.314 5,5 320.751,5 320.751,159.314 "
           style="fill:none;stroke:#000000;stroke-width:0.05mm"
           id="polygon1070" />
        <polygon
           points="10.646,153.424 10.339,153.268 10,153.214 9.66,153.268 9.353,153.424 9.11,153.668 8.953,153.974 8.899,154.314 8.953,154.654 9.11,154.961 9.353,155.204 9.66,155.36 10,155.414 10.339,155.36 10.646,155.204 10.889,154.961 11.046,154.654 11.1,154.314 11.046,153.974 10.889,153.668 "
           style="fill:none;stroke:#000000;stroke-width:0.05mm"
           id="polygon1072" />
        <polygon
           points="163.522,153.424 163.215,153.268 162.875,153.214 162.535,153.268 162.228,153.424 161.985,153.668 161.829,153.974 161.775,154.314 161.829,154.654 161.985,154.961 162.228,155.204 162.535,155.36 162.875,155.414 163.215,155.36 163.522,155.204 163.765,154.961 163.921,154.654 163.975,154.314 163.921,153.974 163.765,153.668 "
           style="fill:none;stroke:#000000;stroke-width:0.05mm"
           id="polygon1074" />
        <polygon
           points="316.397,153.424 316.09,153.268 315.751,153.214 315.411,153.268 315.104,153.424 314.861,153.668 314.704,153.974 314.651,154.314 314.704,154.654 314.861,154.961 315.104,155.204 315.411,155.36 315.751,155.414 316.09,155.36 316.397,155.204 316.64,154.961 316.797,154.654 316.851,154.314 316.797,153.974 316.64,153.668 "
           style="fill:none;stroke:#000000;stroke-width:0.05mm"
           id="polygon1076" />
        <polygon
           points="150.231,144.314 158.108,116.844 139.794,111.593 131.917,139.063 "
           style="fill:none;stroke:#000000;stroke-width:0.05mm"
           id="polygon1078" />
        <polygon
           points="174.205,139.736 192.519,134.485 184.642,107.015 166.328,112.266 "
           style="fill:none;stroke:#000000;stroke-width:0.05mm"
           id="polygon1080" />
        <polygon
           points="131.734,127.427 134.385,108.56 115.519,105.909 112.867,124.775 "
           style="fill:none;stroke:#000000;stroke-width:0.05mm"
           id="polygon1082" />
        <polygon
           points="91.436,124.776 110.488,124.776 110.488,105.724 91.436,105.724 "
           style="fill:none;stroke:#000000;stroke-width:0.05mm"
           id="polygon1084" />
        <polygon
           points="210.499,27.142 191.449,27.142 191.449,46.192 170.017,46.192 170.017,103.344 194.259,103.344 190.701,103.844 193.352,122.711 212.219,120.059 209.87,103.344 210.501,103.344 210.501,100.963 229.551,100.963 229.551,96.201 248.599,96.201 248.599,117.632 267.649,117.632 267.649,124.775 305.751,124.775 305.751,29.524 267.651,29.524 267.651,22.38 248.601,22.38 248.601,19.999 229.549,19.999 229.549,24.761 210.499,24.761 "
           style="fill:none;stroke:#000000;stroke-width:0.05mm"
           id="polygon1086" />
        <polygon
           points="215.261,124.775 234.313,124.775 234.313,105.723 215.261,105.723 "
           style="fill:none;stroke:#000000;stroke-width:0.05mm"
           id="polygon1088" />
        <polygon
           points="115.249,103.344 155.732,103.344 155.732,46.192 134.301,46.192 134.301,27.142 115.251,27.142 115.251,24.761 96.201,24.761 96.201,19.999 77.149,19.999 77.149,22.38 58.099,22.38 58.099,29.524 19.999,29.524 19.999,124.775 58.101,124.775 58.101,117.632 77.151,117.632 77.151,96.201 96.199,96.201 96.199,100.963 115.249,100.963 "
           style="fill:none;stroke:#000000;stroke-width:0.05mm"
           id="polygon1090" />
        <polygon
           points="10.646,9.11 10.339,8.953 10,8.9 9.66,8.953 9.353,9.11 9.11,9.353 8.953,9.66 8.899,10 8.953,10.339 9.11,10.646 9.353,10.889 9.66,11.046 10,11.1 10.339,11.046 10.646,10.889 10.889,10.646 11.046,10.339 11.1,10 11.046,9.66 10.889,9.353 "
           style="fill:none;stroke:#000000;stroke-width:0.05mm"
           id="polygon1092" />
        <polygon
           points="316.397,9.11 316.09,8.953 315.751,8.9 315.411,8.953 315.104,9.11 314.861,9.353 314.704,9.66 314.651,10 314.704,10.339 314.861,10.646 315.104,10.889 315.411,11.046 315.751,11.1 316.09,11.046 316.397,10.889 316.64,10.646 316.797,10.339 316.851,10 316.797,9.66 316.64,9.353 "
           style="fill:none;stroke:#000000;stroke-width:0.05mm"
           id="polygon1094" />
        <polygon
           points="163.522,9.11 163.215,8.953 162.875,8.9 162.535,8.953 162.228,9.11 161.985,9.353 161.829,9.66 161.775,10 161.829,10.339 161.985,10.646 162.228,10.889 162.535,11.046 162.875,11.1 163.215,11.046 163.522,10.889 163.765,10.646 163.921,10.339 163.975,10 163.921,9.66 163.765,9.353 "
           style="fill:none;stroke:#000000;stroke-width:0.05mm"
           id="polygon1096" />
      </g>
    </g>
  </g>
  <g
     inkscape:label="bottom plate"
     id="g1261"
     inkscape:groupmode="layer"
     style="display:inline"
     sodipodi:insensitive="true">
    <path
       style="fill:none;stroke:#000000;stroke-width:0.26458332px;stroke-linecap:butt;stroke-linejoin:miter;stroke-opacity:1"
       d="m 20.306,29.681 v 95.251 h 38.102 v -7.143 l 33.334997,1e-5 v 7.144 l 19.052003,-10e-6 2.379,-0.001 18.867,2.652 0.183,11.636 18.314,5.251 7.877,-27.47 -2.376,-13.5 V 46.349001 H 134.608 V 27.299002 h -19.05 V 24.918 H 96.508003 V 20.156 H 77.456 v 2.381 h -19.05 v 7.144 z"
       id="path1307"
       inkscape:connector-curvature="0" />
  </g>
  <g
     inkscape:groupmode="layer"
     id="layer3"
     inkscape:label="key plate"
     style="display:inline"
     sodipodi:insensitive="true">
    <path
       style="fill:none;stroke:#000000;stroke-width:0.26458332px;stroke-linecap:butt;stroke-linejoin:miter;stroke-opacity:1"
       d="m 20.306,29.681 v 95.251 h 38.102 v -7.143 l 33.334997,1e-5 5e-6,7.14399 H 110.795 l 2.379,-0.001 18.867,2.652 0.183,11.636 18.314,5.251 7.877,-27.47 -2.376,-13.5 -21.431,10e-6 V 27.299003 h -19.05 V 24.917942 H 96.508005 l -2e-6,-4.762 H 77.456 v 2.381 h -19.05 v 7.144 h -38.1"
       id="path1317"
       inkscape:connector-curvature="0" />
  </g>
  <g
     style="display:inline"
     inkscape:label="key holes"
     id="g1459"
     inkscape:groupmode="layer"
     sodipodi:insensitive="true">
    <polygon
       id="polygon1327"
       style="fill:none;stroke:#000000;stroke-width:0.05mm"
       points="153.671,123.154 140.213,119.295 136.354,132.753 149.812,136.612 "
       transform="translate(0.307,0.157)" />
    <polygon
       id="polygon1331"
       style="fill:none;stroke:#000000;stroke-width:0.05mm"
       points="131.532,110.71 117.669,108.762 115.72,122.625 129.584,124.574 "
       transform="translate(0.307,0.157)" />
    <polygon
       id="polygon1333"
       style="fill:none;stroke:#000000;stroke-width:0.05mm"
       points="107.962,122.25 107.962,108.25 93.962,108.25 93.962,122.25 "
       transform="translate(0.307,0.157)" />
    <polygon
       id="polygon1341"
       style="fill:none;stroke:#000000;stroke-width:0.05mm"
       points="55.575,122.249 55.575,108.249 41.575,108.249 41.575,122.249 "
       transform="translate(0.307,0.157)" />
    <polygon
       id="polygon1343"
       style="fill:none;stroke:#000000;stroke-width:0.05mm"
       points="36.525,122.249 36.525,108.249 22.525,108.249 22.525,122.249 "
       transform="translate(0.307,0.157)" />
    <polygon
       id="polygon1349"
       style="fill:none;stroke:#000000;stroke-width:0.05mm"
       points="74.625,115.106 74.625,101.106 60.625,101.106 60.625,115.106 "
       transform="translate(0.307,0.157)" />
    <polygon
       id="polygon1355"
       style="fill:none;stroke:#000000;stroke-width:0.05mm"
       points="55.575,103.199 55.575,89.199 41.575,89.199 41.575,103.199 "
       transform="translate(0.307,0.157)" />
    <polygon
       id="polygon1357"
       style="fill:none;stroke:#000000;stroke-width:0.05mm"
       points="36.525,103.199 36.525,89.199 22.525,89.199 22.525,103.199 "
       transform="translate(0.307,0.157)" />
    <polygon
       id="polygon1361"
       style="fill:none;stroke:#000000;stroke-width:0.05mm"
       points="131.775,100.818 131.775,86.818 117.775,86.818 117.775,100.818 "
       transform="translate(0.307,0.157)" />
    <polygon
       id="polygon1365"
       style="fill:none;stroke:#000000;stroke-width:0.05mm"
       points="112.725,98.437 112.725,84.437 98.725,84.437 98.725,98.437 "
       transform="translate(0.307,0.157)" />
    <polygon
       id="polygon1373"
       style="fill:none;stroke:#000000;stroke-width:0.05mm"
       points="74.625,96.056 74.625,82.056 60.625,82.056 60.625,96.056 "
       transform="translate(0.307,0.157)" />
    <polygon
       id="polygon1377"
       style="fill:none;stroke:#000000;stroke-width:0.05mm"
       points="93.675,93.675 93.675,79.675 79.675,79.675 79.675,93.675 "
       transform="translate(0.307,0.157)" />
    <polygon
       id="polygon1383"
       style="fill:none;stroke:#000000;stroke-width:0.05mm"
       points="55.575,84.15 55.575,70.15 41.575,70.15 41.575,84.15 "
       transform="translate(0.307,0.157)" />
    <polygon
       id="polygon1385"
       style="fill:none;stroke:#000000;stroke-width:0.05mm"
       points="36.525,84.15 36.525,70.15 22.525,70.15 22.525,84.15 "
       transform="translate(0.307,0.157)" />
    <polygon
       id="polygon1389"
       style="fill:none;stroke:#000000;stroke-width:0.05mm"
       points="131.775,81.768 131.775,67.768 117.775,67.768 117.775,81.768 "
       transform="translate(0.307,0.157)" />
    <polygon
       id="polygon1393"
       style="fill:none;stroke:#000000;stroke-width:0.05mm"
       points="112.725,79.387 112.725,65.387 98.725,65.387 98.725,79.387 "
       transform="translate(0.307,0.157)" />
    <polygon
       id="polygon1397"
       style="fill:none;stroke:#000000;stroke-width:0.05mm"
       points="74.625,77.006 74.625,63.006 60.625,63.006 60.625,77.006 "
       transform="translate(0.307,0.157)" />
    <polygon
       id="polygon1401"
       style="fill:none;stroke:#000000;stroke-width:0.05mm"
       points="93.675,74.625 93.675,60.625 79.675,60.625 79.675,74.625 "
       transform="translate(0.307,0.157)" />
    <polygon
       id="polygon1407"
       style="fill:none;stroke:#000000;stroke-width:0.05mm"
       points="55.575,65.099 55.575,51.1 41.575,51.1 41.575,65.099 "
       transform="translate(0.307,0.157)" />
    <polygon
       id="polygon1409"
       style="fill:none;stroke:#000000;stroke-width:0.05mm"
       points="36.525,65.099 36.525,51.1 22.525,51.1 22.525,65.099 "
       transform="translate(0.307,0.157)" />
    <polygon
       id="polygon1413"
       style="fill:none;stroke:#000000;stroke-width:0.05mm"
       points="131.775,62.718 131.775,48.718 117.775,48.718 117.775,62.718 "
       transform="translate(0.307,0.157)" />
    <polygon
       id="polygon1417"
       style="fill:none;stroke:#000000;stroke-width:0.05mm"
       points="112.725,60.337 112.725,46.337 98.725,46.337 98.725,60.337 "
       transform="translate(0.307,0.157)" />
    <polygon
       id="polygon1421"
       style="fill:none;stroke:#000000;stroke-width:0.05mm"
       points="74.625,57.956 74.625,43.956 60.625,43.956 60.625,57.956 "
       transform="translate(0.307,0.157)" />
    <polygon
       id="polygon1425"
       style="fill:none;stroke:#000000;stroke-width:0.05mm"
       points="93.675,55.575 93.675,41.575 79.675,41.575 79.675,55.575 "
       transform="translate(0.307,0.157)" />
    <polygon
       id="polygon1431"
       style="fill:none;stroke:#000000;stroke-width:0.05mm"
       points="55.575,46.05 55.575,32.049 41.575,32.049 41.575,46.05 "
       transform="translate(0.307,0.157)" />
    <polygon
       id="polygon1433"
       style="fill:none;stroke:#000000;stroke-width:0.05mm"
       points="36.525,46.05 36.525,32.049 22.525,32.049 22.525,46.05 "
       transform="translate(0.307,0.157)" />
    <polygon
       id="polygon1437"
       style="fill:none;stroke:#000000;stroke-width:0.05mm"
       points="131.775,43.668 131.775,29.668 117.775,29.668 117.775,43.668 "
       transform="translate(0.307,0.157)" />
    <polygon
       id="polygon1441"
       style="fill:none;stroke:#000000;stroke-width:0.05mm"
       points="112.725,41.287 112.725,27.287 98.725,27.287 98.725,41.287 "
       transform="translate(0.307,0.157)" />
    <polygon
       id="polygon1445"
       style="fill:none;stroke:#000000;stroke-width:0.05mm"
       points="74.625,38.906 74.625,24.906 60.625,24.906 60.625,38.906 "
       transform="translate(0.307,0.157)" />
    <polygon
       id="polygon1449"
       style="fill:none;stroke:#000000;stroke-width:0.05mm"
       points="93.675,36.525 93.675,22.525 79.675,22.525 79.675,36.525 "
       transform="translate(0.307,0.157)" />
  </g>
  <g
     inkscape:groupmode="layer"
     id="layer5"
     inkscape:label="screw holes"
     style="display:inline"
     sodipodi:insensitive="true">
    <circle
       style="display:inline;opacity:1;fill:none;stroke:#000000;stroke-width:0.18900001;stroke-miterlimit:4;stroke-dasharray:none;stroke-opacity:1"
       id="path1532"
       cx="39.357002"
       cy="48.732002"
       r="1.1" />
    <circle
       style="display:inline;opacity:1;fill:none;stroke:#000000;stroke-width:0.18900001;stroke-miterlimit:4;stroke-dasharray:none;stroke-opacity:1"
       id="path1532-5"
       cx="39.357002"
       cy="105.881"
       r="1.1" />
    <circle
       style="display:inline;opacity:1;fill:none;stroke:#000000;stroke-width:0.18900001;stroke-miterlimit:4;stroke-dasharray:none;stroke-opacity:1"
       id="path1532-5-6"
       cx="77.457001"
       cy="60.637997"
       r="1.1" />
    <circle
       style="display:inline;opacity:1;fill:none;stroke:#000000;stroke-width:0.18900001;stroke-miterlimit:4;stroke-dasharray:none;stroke-opacity:1"
       id="path1532-5-6-2"
       cx="115.557"
       cy="84.450005"
       r="1.1" />
    <circle
       style="display:inline;opacity:1;fill:none;stroke:#000000;stroke-width:0.18900001;stroke-miterlimit:4;stroke-dasharray:none;stroke-opacity:1"
       id="path1532-5-6-2-9"
       cx="115.557"
       cy="46.350002"
       r="1.1" />
    <circle
       style="display:inline;opacity:1;fill:none;stroke:#000000;stroke-width:0.18900001;stroke-miterlimit:4;stroke-dasharray:none;stroke-opacity:1"
       id="path1532-5-6-2-1"
       cx="134.38576"
       cy="122.46375"
       r="1.1" />
    <circle
       style="display:inline;opacity:1;fill:none;stroke:#000000;stroke-width:0.18900001;stroke-miterlimit:4;stroke-dasharray:none;stroke-opacity:1"
       id="path1532-5-6-2-9-3"
       cx="138.1825"
       cy="84.406494"
       r="1.1" />
    <circle
       style="display:inline;opacity:1;fill:none;stroke:#000000;stroke-width:0.18900001;stroke-miterlimit:4;stroke-dasharray:none;stroke-opacity:1"
       id="path1532-5-6-2-9-3-6"
       cx="152.52449"
       cy="84.406494"
       r="1.1" />
  </g>
</svg>
