<?xml version="1.0" encoding="UTF-8" standalone="no"?>
<!-- Generated by SVGo -->

<svg
   xmlns:dc="http://purl.org/dc/elements/1.1/"
   xmlns:cc="http://creativecommons.org/ns#"
   xmlns:rdf="http://www.w3.org/1999/02/22-rdf-syntax-ns#"
   xmlns:svg="http://www.w3.org/2000/svg"
   xmlns="http://www.w3.org/2000/svg"
   xmlns:sodipodi="http://sodipodi.sourceforge.net/DTD/sodipodi-0.dtd"
   xmlns:inkscape="http://www.inkscape.org/namespaces/inkscape"
   width="325.751mm"
   height="164.314mm"
   viewBox="0.000 0.000 325.751 164.314"
   version="1.1"
   id="svg972"
   sodipodi:docname="key_holes.svg"
   inkscape:version="0.92.3 (2405546, 2018-03-11)">
  <metadata
     id="metadata978">
    <rdf:RDF>
      <cc:Work
         rdf:about="">
        <dc:format>image/svg+xml</dc:format>
        <dc:type
           rdf:resource="http://purl.org/dc/dcmitype/StillImage" />
        <dc:title />
      </cc:Work>
    </rdf:RDF>
  </metadata>
  <defs
     id="defs976" />
  <sodipodi:namedview
     pagecolor="#ffffff"
     bordercolor="#666666"
     borderopacity="1"
     objecttolerance="10"
     gridtolerance="10"
     guidetolerance="10"
     inkscape:pageopacity="0"
     inkscape:pageshadow="2"
     inkscape:window-width="1706"
     inkscape:window-height="1353"
     id="namedview974"
     showgrid="false"
     inkscape:zoom="1.0843356"
     inkscape:cx="189.12192"
     inkscape:cy="307.16308"
     inkscape:window-x="1576"
     inkscape:window-y="447"
     inkscape:window-maximized="0"
     inkscape:current-layer="g1459" />
  <g
     style="display:inline"
     inkscape:label="key holes"
     id="g1459"
     inkscape:groupmode="layer"
     sodipodi:insensitive="true">
    <polygon
       id="polygon1327"
       style="fill:none;stroke:#000000;stroke-width:0.05mm"
       points="153.671,123.154 140.213,119.295 136.354,132.753 149.812,136.612 "
       transform="translate(0.307,0.157)" />
    <polygon
       id="polygon1331"
       style="fill:none;stroke:#000000;stroke-width:0.05mm"
       points="131.532,110.71 117.669,108.762 115.72,122.625 129.584,124.574 "
       transform="translate(0.307,0.157)" />
    <polygon
       id="polygon1333"
       style="fill:none;stroke:#000000;stroke-width:0.05mm"
       points="107.962,122.25 107.962,108.25 93.962,108.25 93.962,122.25 "
       transform="translate(0.307,0.157)" />
    <polygon
       id="polygon1341"
       style="fill:none;stroke:#000000;stroke-width:0.05mm"
       points="55.575,122.249 55.575,108.249 41.575,108.249 41.575,122.249 "
       transform="translate(0.307,0.157)" />
    <polygon
       id="polygon1343"
       style="fill:none;stroke:#000000;stroke-width:0.05mm"
       points="36.525,122.249 36.525,108.249 22.525,108.249 22.525,122.249 "
       transform="translate(0.307,0.157)" />
    <polygon
       id="polygon1349"
       style="fill:none;stroke:#000000;stroke-width:0.05mm"
       points="74.625,115.106 74.625,101.106 60.625,101.106 60.625,115.106 "
       transform="translate(0.307,0.157)" />
    <polygon
       id="polygon1355"
       style="fill:none;stroke:#000000;stroke-width:0.05mm"
       points="55.575,103.199 55.575,89.199 41.575,89.199 41.575,103.199 "
       transform="translate(0.307,0.157)" />
    <polygon
       id="polygon1357"
       style="fill:none;stroke:#000000;stroke-width:0.05mm"
       points="36.525,103.199 36.525,89.199 22.525,89.199 22.525,103.199 "
       transform="translate(0.307,0.157)" />
    <polygon
       id="polygon1361"
       style="fill:none;stroke:#000000;stroke-width:0.05mm"
       points="131.775,100.818 131.775,86.818 117.775,86.818 117.775,100.818 "
       transform="translate(0.307,0.157)" />
    <polygon
       id="polygon1365"
       style="fill:none;stroke:#000000;stroke-width:0.05mm"
       points="112.725,98.437 112.725,84.437 98.725,84.437 98.725,98.437 "
       transform="translate(0.307,0.157)" />
    <polygon
       id="polygon1373"
       style="fill:none;stroke:#000000;stroke-width:0.05mm"
       points="74.625,96.056 74.625,82.056 60.625,82.056 60.625,96.056 "
       transform="translate(0.307,0.157)" />
    <polygon
       id="polygon1377"
       style="fill:none;stroke:#000000;stroke-width:0.05mm"
       points="93.675,93.675 93.675,79.675 79.675,79.675 79.675,93.675 "
       transform="translate(0.307,0.157)" />
    <polygon
       id="polygon1383"
       style="fill:none;stroke:#000000;stroke-width:0.05mm"
       points="55.575,84.15 55.575,70.15 41.575,70.15 41.575,84.15 "
       transform="translate(0.307,0.157)" />
    <polygon
       id="polygon1385"
       style="fill:none;stroke:#000000;stroke-width:0.05mm"
       points="36.525,84.15 36.525,70.15 22.525,70.15 22.525,84.15 "
       transform="translate(0.307,0.157)" />
    <polygon
       id="polygon1389"
       style="fill:none;stroke:#000000;stroke-width:0.05mm"
       points="131.775,81.768 131.775,67.768 117.775,67.768 117.775,81.768 "
       transform="translate(0.307,0.157)" />
    <polygon
       id="polygon1393"
       style="fill:none;stroke:#000000;stroke-width:0.05mm"
       points="112.725,79.387 112.725,65.387 98.725,65.387 98.725,79.387 "
       transform="translate(0.307,0.157)" />
    <polygon
       id="polygon1397"
       style="fill:none;stroke:#000000;stroke-width:0.05mm"
       points="74.625,77.006 74.625,63.006 60.625,63.006 60.625,77.006 "
       transform="translate(0.307,0.157)" />
    <polygon
       id="polygon1401"
       style="fill:none;stroke:#000000;stroke-width:0.05mm"
       points="93.675,74.625 93.675,60.625 79.675,60.625 79.675,74.625 "
       transform="translate(0.307,0.157)" />
    <polygon
       id="polygon1407"
       style="fill:none;stroke:#000000;stroke-width:0.05mm"
       points="55.575,65.099 55.575,51.1 41.575,51.1 41.575,65.099 "
       transform="translate(0.307,0.157)" />
    <polygon
       id="polygon1409"
       style="fill:none;stroke:#000000;stroke-width:0.05mm"
       points="36.525,65.099 36.525,51.1 22.525,51.1 22.525,65.099 "
       transform="translate(0.307,0.157)" />
    <polygon
       id="polygon1413"
       style="fill:none;stroke:#000000;stroke-width:0.05mm"
       points="131.775,62.718 131.775,48.718 117.775,48.718 117.775,62.718 "
       transform="translate(0.307,0.157)" />
    <polygon
       id="polygon1417"
       style="fill:none;stroke:#000000;stroke-width:0.05mm"
       points="112.725,60.337 112.725,46.337 98.725,46.337 98.725,60.337 "
       transform="translate(0.307,0.157)" />
    <polygon
       id="polygon1421"
       style="fill:none;stroke:#000000;stroke-width:0.05mm"
       points="74.625,57.956 74.625,43.956 60.625,43.956 60.625,57.956 "
       transform="translate(0.307,0.157)" />
    <polygon
       id="polygon1425"
       style="fill:none;stroke:#000000;stroke-width:0.05mm"
       points="93.675,55.575 93.675,41.575 79.675,41.575 79.675,55.575 "
       transform="translate(0.307,0.157)" />
    <polygon
       id="polygon1431"
       style="fill:none;stroke:#000000;stroke-width:0.05mm"
       points="55.575,46.05 55.575,32.049 41.575,32.049 41.575,46.05 "
       transform="translate(0.307,0.157)" />
    <polygon
       id="polygon1433"
       style="fill:none;stroke:#000000;stroke-width:0.05mm"
       points="36.525,46.05 36.525,32.049 22.525,32.049 22.525,46.05 "
       transform="translate(0.307,0.157)" />
    <polygon
       id="polygon1437"
       style="fill:none;stroke:#000000;stroke-width:0.05mm"
       points="131.775,43.668 131.775,29.668 117.775,29.668 117.775,43.668 "
       transform="translate(0.307,0.157)" />
    <polygon
       id="polygon1441"
       style="fill:none;stroke:#000000;stroke-width:0.05mm"
       points="112.725,41.287 112.725,27.287 98.725,27.287 98.725,41.287 "
       transform="translate(0.307,0.157)" />
    <polygon
       id="polygon1445"
       style="fill:none;stroke:#000000;stroke-width:0.05mm"
       points="74.625,38.906 74.625,24.906 60.625,24.906 60.625,38.906 "
       transform="translate(0.307,0.157)" />
    <polygon
       id="polygon1449"
       style="fill:none;stroke:#000000;stroke-width:0.05mm"
       points="93.675,36.525 93.675,22.525 79.675,22.525 79.675,36.525 "
       transform="translate(0.307,0.157)" />
  </g>
</svg>
